{"glyphs":{"0":{"ha":772,"x_min":29,"x_max":743,"o":"m 29 490 q 127 874 29 756 q 385 992 225 992 q 524 966 461 992 q 637 884 586 940 q 715 728 688 828 q 743 490 743 628 q 644 99 743 218 q 385 -19 546 -19 q 127 100 225 -19 q 29 490 29 219 m 226 490 q 227 410 226 442 q 236 322 228 379 q 260 231 244 265 q 308 170 275 197 q 385 143 340 143 q 463 170 431 143 q 511 231 496 197 q 535 322 526 265 q 544 410 543 379 q 546 490 546 442 q 545 542 546 522 q 542 601 544 561 q 533 667 539 640 q 516 726 528 693 q 488 780 504 760 q 444 815 471 800 q 385 829 418 829 q 326 815 351 829 q 284 780 300 800 q 256 726 268 760 q 239 667 244 693 q 231 601 233 640 q 227 542 228 561 q 226 490 226 522 z "},"1":{"ha":772,"x_min":103,"x_max":544,"o":"m 544 972 l 544 0 l 347 0 l 347 631 l 103 631 l 103 779 q 294 822 217 776 q 388 972 372 868 l 544 972 z "},"2":{"ha":772,"x_min":29,"x_max":743,"o":"m 240 599 l 51 599 q 140 881 46 771 q 404 992 233 992 q 640 908 543 992 q 738 688 738 825 q 692 520 738 588 q 564 393 647 453 q 492 344 540 376 q 413 292 443 313 q 345 238 382 272 q 283 169 308 204 l 743 169 l 743 0 l 29 0 q 47 122 29 65 q 88 217 65 178 q 158 299 111 256 q 238 367 204 342 q 336 435 272 392 q 379 463 342 439 q 428 497 417 488 q 469 530 440 506 q 508 572 497 554 q 529 616 518 589 q 540 672 540 643 q 499 781 540 740 q 394 822 458 822 q 277 756 314 822 q 240 599 240 689 z "},"3":{"ha":772,"x_min":25,"x_max":747,"o":"m 317 440 l 317 579 q 385 580 353 576 q 451 595 418 583 q 503 634 483 607 q 524 700 524 661 q 483 794 524 760 q 386 829 443 829 q 274 781 314 829 q 236 656 235 733 l 49 656 q 145 899 54 806 q 385 992 236 992 q 611 918 511 992 q 711 722 711 844 q 676 596 711 650 q 575 524 640 542 l 575 521 q 701 442 654 503 q 747 300 747 382 q 642 67 747 153 q 386 -19 536 -19 q 121 75 219 -19 q 25 335 22 169 l 213 335 q 258 197 215 250 q 383 143 301 143 q 497 185 451 143 q 542 296 542 228 q 533 358 542 332 q 503 399 524 383 q 467 423 483 414 q 417 435 450 432 q 367 440 383 439 q 317 440 351 440 z "},"4":{"ha":772,"x_min":22,"x_max":750,"o":"m 433 0 l 433 225 l 22 225 l 22 406 l 444 972 l 621 972 l 621 388 l 750 388 l 750 225 l 621 225 l 621 0 l 433 0 m 433 388 l 433 725 l 429 725 l 178 388 l 433 388 z "},"5":{"ha":772,"x_min":25,"x_max":747,"o":"m 694 972 l 694 810 l 293 810 l 254 589 l 257 586 q 447 661 331 661 q 667 567 586 661 q 747 331 747 472 q 641 80 747 182 q 386 -19 535 -22 q 131 62 236 -19 q 25 289 26 143 l 222 289 q 274 183 229 224 q 382 143 318 143 q 503 199 457 143 q 550 331 550 254 q 505 460 550 408 q 382 513 460 513 q 297 494 331 513 q 233 435 264 476 l 56 435 l 151 972 l 694 972 z "},"6":{"ha":772,"x_min":29,"x_max":743,"o":"m 726 722 l 539 722 q 494 808 529 774 q 408 843 458 843 q 321 813 358 843 q 263 735 283 783 q 234 640 243 686 q 222 547 225 594 l 225 544 q 444 653 301 653 q 567 626 507 653 q 668 553 626 599 q 743 336 743 465 q 648 83 743 185 q 403 -19 553 -19 q 221 24 297 -19 q 105 141 144 67 q 47 299 65 215 q 29 483 29 383 q 51 663 29 576 q 116 826 72 750 q 236 947 160 901 q 411 992 313 992 q 624 920 539 992 q 726 722 710 849 m 397 504 q 281 452 322 504 q 240 324 240 400 q 283 197 240 251 q 397 143 326 143 q 505 197 464 143 q 546 321 546 250 q 508 450 546 396 q 397 504 469 504 z "},"7":{"ha":772,"x_min":54,"x_max":718,"o":"m 718 972 l 718 803 q 488 444 574 676 q 400 0 403 211 l 189 0 q 290 417 206 214 q 515 789 375 621 l 54 789 l 54 972 l 718 972 z "},"8":{"ha":772,"x_min":19,"x_max":753,"o":"m 217 294 q 267 175 217 221 q 389 129 317 129 q 508 175 461 129 q 556 293 556 221 q 508 405 556 361 q 389 449 460 449 q 265 408 314 449 q 217 294 217 367 m 60 726 q 159 921 60 850 q 388 992 258 992 q 540 965 474 992 q 642 896 606 938 q 695 812 678 854 q 713 731 713 769 q 676 603 713 657 q 571 526 639 549 l 571 524 q 705 441 657 504 q 753 286 753 378 q 644 61 753 142 q 389 -19 536 -19 q 128 58 236 -19 q 19 285 19 136 q 68 440 19 376 q 203 524 117 503 l 203 526 q 97 599 133 546 q 60 726 60 653 m 239 708 q 282 614 239 647 q 388 581 325 581 q 492 615 450 581 q 533 708 533 649 q 501 801 533 760 q 388 843 468 843 q 282 807 325 843 q 239 708 239 771 z "},"9":{"ha":772,"x_min":29,"x_max":743,"o":"m 46 250 l 233 250 q 278 164 243 199 q 364 129 314 129 q 451 159 414 129 q 509 238 489 189 q 538 332 529 286 q 550 425 547 378 l 547 428 q 328 319 471 319 q 206 347 265 319 q 104 419 146 374 q 29 636 29 507 q 124 890 29 788 q 369 992 219 992 q 551 949 475 992 q 667 831 628 906 q 725 673 707 757 q 743 489 743 589 q 722 309 743 396 q 656 147 700 222 q 536 26 613 71 q 361 -19 460 -19 q 148 52 233 -19 q 46 250 63 124 m 375 468 q 491 520 450 468 q 532 649 532 572 q 489 775 532 721 q 375 829 446 829 q 267 776 308 829 q 226 651 226 722 q 265 522 226 576 q 375 468 303 468 z "}," ":{"ha":386,"x_min":0,"x_max":0,"o":""},"!":{"ha":386,"x_min":85,"x_max":303,"o":"m 296 992 l 296 725 l 242 297 l 143 297 l 90 725 l 90 992 l 296 992 m 85 0 l 85 214 l 303 214 l 303 0 l 85 0 z "},"\"":{"ha":643,"x_min":118,"x_max":525,"o":"m 376 546 l 376 992 l 525 992 l 525 546 l 376 546 m 118 546 l 118 992 l 267 992 l 267 546 l 118 546 z "},"#":{"ha":772,"x_min":46,"x_max":726,"o":"m 122 0 l 161 275 l 46 275 l 46 400 l 178 400 l 203 572 l 88 572 l 88 697 l 219 697 l 258 972 l 393 972 l 354 697 l 489 697 l 526 972 l 661 972 l 624 697 l 726 697 l 726 572 l 606 572 l 582 400 l 685 400 l 685 275 l 564 275 l 526 0 l 392 0 l 429 275 l 296 275 l 257 0 l 122 0 m 471 572 l 338 572 l 313 400 l 447 400 l 471 572 z "},"$":{"ha":772,"x_min":-1,"x_max":774,"o":"m 344 626 l 344 853 q 257 822 294 853 q 219 738 219 792 q 248 667 219 692 q 344 626 276 642 m 426 406 l 426 139 q 531 179 486 144 q 576 275 576 214 q 544 356 576 329 q 426 406 513 382 m -1 322 l 196 322 q 236 200 194 249 q 344 139 278 151 l 344 429 q 300 442 333 433 q 196 476 238 458 q 110 524 154 493 q 44 603 67 554 q 22 718 22 651 q 116 930 22 853 q 344 1015 210 1007 l 344 1122 l 426 1122 l 426 1015 q 645 928 560 1000 q 739 719 731 856 l 542 719 q 507 814 540 775 q 426 853 474 853 l 426 607 q 497 589 485 593 q 630 535 575 568 q 712 471 685 501 q 754 398 739 440 q 772 330 769 356 q 774 267 774 304 q 765 208 774 240 q 731 135 756 175 q 669 63 706 96 q 569 6 632 31 q 426 -24 506 -18 l 426 -142 l 344 -142 l 344 -24 q -1 322 29 0 z "},"%":{"ha":1389,"x_min":104,"x_max":1285,"o":"m 104 717 q 164 915 104 838 q 340 992 224 992 q 515 915 461 992 q 568 711 568 838 q 509 521 568 592 q 333 450 450 450 q 104 717 104 450 m 246 714 q 247 674 246 689 q 252 633 247 658 q 265 592 257 607 q 292 566 274 578 q 335 554 310 554 q 426 713 426 554 q 340 888 426 888 q 246 714 246 888 m 821 254 q 881 448 821 374 q 1057 522 940 522 q 1285 249 1285 522 q 1226 55 1285 129 q 1050 -19 1167 -19 q 875 55 929 -19 q 821 254 821 129 m 963 253 q 963 211 963 226 q 969 169 964 196 q 982 126 974 142 q 1008 97 990 110 q 1051 85 1026 85 q 1143 251 1143 85 q 1057 418 1143 418 q 963 253 963 418 m 353 -31 l 928 1003 l 1046 1003 l 474 -31 l 353 -31 z "},"&":{"ha":951,"x_min":44,"x_max":967,"o":"m 531 776 q 503 843 531 815 q 440 871 476 871 q 378 846 404 871 q 351 783 351 821 q 353 758 351 771 q 361 734 356 746 q 370 714 367 722 q 383 692 374 706 q 397 674 393 679 q 414 653 401 668 q 429 635 426 639 q 482 672 464 657 q 515 715 500 688 q 531 776 531 742 m 540 231 l 371 438 q 232 274 232 376 q 274 181 232 219 q 374 143 317 143 q 540 231 463 143 m 725 0 l 644 99 q 365 -19 524 -19 q 135 60 226 -19 q 44 278 44 140 q 107 447 44 375 q 267 565 169 519 q 196 671 219 624 q 172 776 172 718 q 250 940 172 876 q 431 1003 328 1003 q 626 941 549 1003 q 703 765 703 879 q 526 518 703 611 l 654 361 q 690 479 681 411 l 861 479 q 765 235 846 335 l 967 0 l 725 0 z "},"'":{"ha":386,"x_min":119,"x_max":268,"o":"m 119 546 l 119 992 l 268 992 l 268 546 l 119 546 z "},"(":{"ha":411,"x_min":72,"x_max":421,"o":"m 256 1015 l 421 1015 q 269 386 269 726 q 419 -253 269 39 l 256 -253 q 72 372 72 51 q 120 713 72 536 q 256 1015 168 889 z "},")":{"ha":411,"x_min":-10,"x_max":339,"o":"m 156 -253 l -10 -253 q 142 375 142 33 q -8 1015 142 721 l 156 1015 q 339 389 339 708 q 291 49 339 225 q 156 -253 243 -126 z "},"*":{"ha":565,"x_min":31,"x_max":535,"o":"m 336 992 l 336 818 l 497 879 l 535 772 l 371 718 l 474 582 l 382 514 l 279 657 l 182 514 l 89 582 l 192 718 l 31 772 l 68 879 l 225 818 l 225 992 l 336 992 z "},"+":{"ha":833,"x_min":67,"x_max":768,"o":"m 492 701 l 492 425 l 768 425 l 768 276 l 492 276 l 492 0 l 343 0 l 343 276 l 67 276 l 67 425 l 343 425 l 343 701 l 492 701 z "},",":{"ha":386,"x_min":85,"x_max":303,"o":"m 85 0 l 85 214 l 303 214 l 303 0 q 241 -155 303 -93 q 86 -231 179 -217 l 86 -131 q 158 -85 129 -124 q 185 0 188 -46 l 85 0 z "},"-":{"ha":565,"x_min":74,"x_max":492,"o":"m 74 294 l 74 464 l 492 464 l 492 294 l 74 294 z "},".":{"ha":386,"x_min":83,"x_max":301,"o":"m 83 0 l 83 214 l 301 214 l 301 0 l 83 0 z "},"/":{"ha":515,"x_min":-15,"x_max":531,"o":"m -15 -24 l 372 1015 l 531 1015 l 143 -24 l -15 -24 z "},":":{"ha":386,"x_min":85,"x_max":303,"o":"m 85 0 l 85 214 l 303 214 l 303 0 l 85 0 m 303 706 l 303 492 l 85 492 l 85 706 l 303 706 z "},";":{"ha":386,"x_min":85,"x_max":303,"o":"m 85 0 l 85 214 l 303 214 l 303 0 q 240 -155 301 -93 q 86 -231 179 -217 l 86 -131 q 158 -85 129 -124 q 185 0 188 -46 l 85 0 m 303 706 l 303 492 l 85 492 l 85 706 l 303 706 z "},"<":{"ha":833,"x_min":64,"x_max":769,"o":"m 769 714 l 769 554 l 260 351 l 769 149 l 769 -11 l 64 269 l 64 433 l 769 714 z "},"=":{"ha":833,"x_min":67,"x_max":768,"o":"m 768 574 l 768 425 l 67 425 l 67 574 l 768 574 m 768 276 l 768 128 l 67 128 l 67 276 l 768 276 z "},">":{"ha":833,"x_min":64,"x_max":769,"o":"m 64 -11 l 64 149 l 574 351 l 64 554 l 64 714 l 769 433 l 769 269 l 64 -11 z "},"?":{"ha":772,"x_min":44,"x_max":728,"o":"m 249 672 l 44 672 q 140 919 47 824 q 382 1015 232 1015 q 546 989 475 1015 q 654 921 617 963 q 710 835 692 879 q 728 747 728 790 q 697 606 728 657 q 611 513 667 556 q 586 494 604 507 q 560 474 568 481 q 537 456 551 468 q 515 434 522 443 q 497 411 507 425 q 483 382 488 397 q 475 350 478 367 l 475 297 l 288 297 l 288 360 q 324 490 293 442 q 408 578 356 538 q 488 653 472 628 q 510 728 510 685 q 392 853 510 853 q 285 802 321 853 q 249 672 250 751 m 268 0 l 268 214 l 486 214 l 486 0 l 268 0 z "},"@":{"ha":1111,"x_min":50,"x_max":1061,"o":"m 404 443 q 434 353 404 388 q 513 319 464 319 q 633 386 583 319 q 683 529 683 453 q 652 613 683 579 q 576 647 621 647 q 455 582 506 647 q 404 443 404 517 m 864 757 l 776 399 q 789 307 749 307 q 902 381 851 307 q 953 563 953 456 q 847 814 953 724 q 576 904 740 904 q 292 788 400 904 q 183 493 183 672 q 298 200 183 313 q 593 88 413 88 q 892 201 778 88 l 1008 201 q 826 35 938 94 q 585 -24 715 -24 q 206 126 361 -24 q 50 496 50 275 q 205 865 50 714 q 578 1015 360 1015 q 918 897 775 1015 q 1061 592 1061 778 q 1035 440 1061 510 q 972 326 1010 371 q 888 249 933 281 q 803 203 842 217 q 735 189 764 189 q 664 211 692 189 q 633 268 636 233 l 631 268 q 481 188 582 188 q 327 258 392 188 q 263 425 263 328 q 348 672 263 564 q 565 779 433 779 q 660 756 615 779 q 728 682 706 732 l 750 757 l 864 757 z "},"A":{"ha":951,"x_min":-10,"x_max":961,"o":"m -10 0 l 367 992 l 590 992 l 961 0 l 735 0 l 660 221 l 289 221 l 211 0 l -10 0 m 475 747 l 346 383 l 603 383 l 478 747 l 475 747 z "},"B":{"ha":978,"x_min":96,"x_max":926,"o":"m 314 442 l 314 169 l 547 169 q 708 300 708 169 q 551 442 708 442 l 314 442 m 96 0 l 96 992 l 563 992 q 879 746 879 992 q 744 539 879 604 q 880 448 833 514 q 926 288 926 382 q 825 73 926 146 q 576 0 724 0 l 96 0 m 314 822 l 314 590 l 535 590 q 632 619 596 590 q 668 708 668 649 q 518 822 668 822 l 314 822 z "},"C":{"ha":1029,"x_min":53,"x_max":976,"o":"m 968 658 l 757 658 q 685 782 747 732 q 540 832 622 832 q 385 782 447 832 q 297 658 322 732 q 271 492 271 583 q 338 256 271 353 q 540 160 404 160 q 695 220 638 160 q 765 382 753 281 l 976 382 q 841 87 960 197 q 540 -24 722 -24 q 185 123 317 -24 q 53 492 53 269 q 184 867 53 719 q 540 1015 315 1015 q 829 920 710 1015 q 968 658 949 825 z "},"D":{"ha":1029,"x_min":96,"x_max":974,"o":"m 96 0 l 96 992 l 524 992 q 849 866 725 992 q 974 501 974 740 q 858 138 974 276 q 524 0 743 0 l 96 0 m 314 808 l 314 183 l 508 183 q 685 256 614 183 q 756 481 756 328 q 690 724 756 640 q 469 808 625 808 l 314 808 z "},"E":{"ha":900,"x_min":96,"x_max":849,"o":"m 96 0 l 96 992 l 838 992 l 838 808 l 314 808 l 314 596 l 794 596 l 794 426 l 314 426 l 314 183 l 849 183 l 849 0 l 96 0 z "},"F":{"ha":824,"x_min":96,"x_max":793,"o":"m 96 0 l 96 992 l 793 992 l 793 808 l 314 808 l 314 579 l 729 579 l 729 410 l 314 410 l 314 0 l 96 0 z "},"G":{"ha":1054,"x_min":53,"x_max":974,"o":"m 835 0 l 813 113 q 540 -24 707 -24 q 185 123 317 -24 q 53 492 53 269 q 184 867 53 719 q 540 1015 315 1015 q 821 922 700 1015 q 958 665 942 828 l 750 665 q 676 789 732 746 q 540 832 619 832 q 385 782 447 832 q 297 658 322 732 q 271 492 271 583 q 338 256 271 353 q 540 160 404 160 q 706 215 646 160 q 776 374 767 269 l 557 374 l 557 536 l 974 536 l 974 0 l 835 0 z "},"H":{"ha":1029,"x_min":96,"x_max":933,"o":"m 96 0 l 96 992 l 314 992 l 314 611 l 715 611 l 715 992 l 933 992 l 933 0 l 715 0 l 715 428 l 314 428 l 314 0 l 96 0 z "},"I":{"ha":410,"x_min":96,"x_max":314,"o":"m 96 0 l 96 992 l 314 992 l 314 0 l 96 0 z "},"J":{"ha":772,"x_min":19,"x_max":676,"o":"m 676 992 l 676 313 q 346 -24 676 -24 q 115 53 210 -24 q 19 283 19 131 l 19 369 l 217 369 l 217 325 q 244 202 217 244 q 343 160 271 160 q 399 171 376 160 q 433 196 422 182 q 451 236 444 210 q 458 278 457 263 q 458 322 458 293 l 458 992 l 676 992 z "},"K":{"ha":1003,"x_min":96,"x_max":1011,"o":"m 96 0 l 96 992 l 314 992 l 314 581 l 701 992 l 974 992 l 586 600 l 1011 0 l 738 0 l 439 446 l 314 319 l 314 0 l 96 0 z "},"L":{"ha":824,"x_min":96,"x_max":797,"o":"m 96 0 l 96 992 l 314 992 l 314 183 l 797 183 l 797 0 l 96 0 z "},"M":{"ha":1260,"x_min":96,"x_max":1164,"o":"m 96 0 l 96 992 l 403 992 l 635 310 l 638 310 l 857 992 l 1164 992 l 1164 0 l 960 0 l 960 703 l 957 703 l 714 0 l 546 0 l 303 696 l 300 696 l 300 0 l 96 0 z "},"N":{"ha":1029,"x_min":96,"x_max":933,"o":"m 96 0 l 96 992 l 313 992 l 726 326 l 729 326 l 729 992 l 933 992 l 933 0 l 715 0 l 303 664 l 300 664 l 300 0 l 96 0 z "},"O":{"ha":1081,"x_min":53,"x_max":1028,"o":"m 53 492 q 184 867 53 719 q 540 1015 315 1015 q 897 867 765 1015 q 1028 492 1028 719 q 896 123 1028 269 q 540 -24 764 -24 q 185 123 317 -24 q 53 492 53 269 m 271 492 q 338 256 271 353 q 540 160 404 160 q 743 256 676 160 q 810 492 810 353 q 784 658 810 583 q 696 782 758 732 q 540 832 633 832 q 385 782 447 832 q 297 658 322 732 q 271 492 271 583 z "},"P":{"ha":926,"x_min":96,"x_max":886,"o":"m 96 0 l 96 992 l 543 992 q 741 944 661 992 q 853 828 821 897 q 886 674 886 760 q 853 519 886 588 q 741 403 821 450 q 543 356 661 356 l 314 356 l 314 0 l 96 0 m 314 822 l 314 525 l 483 525 q 624 556 572 525 q 675 674 675 588 q 624 791 675 760 q 483 822 572 822 l 314 822 z "},"Q":{"ha":1081,"x_min":53,"x_max":1028,"o":"m 1022 14 l 921 -93 l 781 35 q 540 -24 679 -24 q 185 123 317 -24 q 53 492 53 269 q 184 867 53 719 q 540 1015 315 1015 q 897 867 765 1015 q 1028 492 1028 719 q 899 126 1028 272 l 1022 14 m 535 258 l 636 367 l 749 264 q 810 492 810 349 q 784 658 810 583 q 696 782 758 732 q 540 832 633 832 q 385 782 447 832 q 297 658 322 732 q 271 492 271 583 q 338 256 271 353 q 540 160 404 160 q 628 174 613 160 l 535 258 z "},"R":{"ha":1003,"x_min":96,"x_max":950,"o":"m 96 0 l 96 992 l 631 992 q 841 913 761 992 q 921 718 921 833 q 764 469 921 533 l 764 467 q 908 235 894 433 q 910 193 908 226 q 914 140 913 160 q 919 90 915 119 q 931 38 924 61 q 950 0 939 15 l 732 0 q 715 67 721 28 q 705 160 708 107 q 697 238 701 213 q 649 353 686 318 q 532 388 613 388 l 314 388 l 314 0 l 96 0 m 314 822 l 314 543 l 553 543 q 703 685 703 543 q 553 822 703 822 l 314 822 z "},"S":{"ha":901,"x_min":33,"x_max":868,"o":"m 33 329 l 244 329 q 306 191 244 236 q 464 146 368 146 q 549 155 510 146 q 623 193 589 164 q 657 269 657 222 q 649 310 657 292 q 624 342 642 328 q 588 367 606 357 q 539 386 571 376 q 485 402 507 396 q 424 418 464 408 q 363 433 383 428 q 253 468 297 450 q 161 518 208 486 q 90 599 114 550 q 67 715 67 649 q 123 882 67 811 q 261 984 179 953 q 438 1015 343 1015 q 633 985 547 1015 q 777 880 719 954 q 835 696 835 806 l 624 696 q 428 846 615 846 q 323 818 368 846 q 278 733 278 790 q 325 657 278 679 q 574 583 372 635 q 769 501 706 550 q 868 294 868 425 q 760 65 868 153 q 456 -24 651 -24 q 154 67 276 -24 q 33 329 32 157 z "},"T":{"ha":849,"x_min":18,"x_max":831,"o":"m 315 0 l 315 808 l 18 808 l 18 992 l 831 992 l 831 808 l 533 808 l 533 0 l 315 0 z "},"U":{"ha":1029,"x_min":92,"x_max":938,"o":"m 938 992 l 938 375 q 827 77 938 178 q 514 -24 717 -24 q 201 76 310 -24 q 92 375 92 176 l 92 992 l 310 992 l 310 375 q 352 218 310 276 q 514 160 394 160 q 674 210 628 160 q 719 375 719 261 l 719 992 l 938 992 z "},"V":{"ha":875,"x_min":-11,"x_max":886,"o":"m 886 992 l 557 0 l 311 0 l -11 992 l 214 992 l 435 294 l 438 294 l 661 992 l 886 992 z "},"W":{"ha":1311,"x_min":4,"x_max":1307,"o":"m 1307 992 l 1040 0 l 824 0 l 656 675 l 653 675 l 488 0 l 267 0 l 4 992 l 222 992 l 379 317 l 382 317 l 554 992 l 758 992 l 928 308 l 931 308 l 1093 992 l 1307 992 z "},"X":{"ha":926,"x_min":-8,"x_max":935,"o":"m -8 0 l 339 519 l 19 992 l 272 992 l 467 675 l 668 992 l 907 992 l 589 518 l 935 0 l 675 0 l 458 343 l 238 0 l -8 0 z "},"Y":{"ha":926,"x_min":-12,"x_max":939,"o":"m 353 0 l 353 386 l -12 992 l 233 992 l 465 600 l 696 992 l 939 992 l 571 381 l 571 0 l 353 0 z "},"Z":{"ha":900,"x_min":32,"x_max":868,"o":"m 32 0 l 32 172 l 564 808 l 74 808 l 74 992 l 854 992 l 854 819 l 322 183 l 868 183 l 868 0 l 32 0 z "},"[":{"ha":463,"x_min":94,"x_max":461,"o":"m 94 -253 l 94 1015 l 461 1015 l 461 860 l 292 860 l 292 -97 l 461 -97 l 461 -253 l 94 -253 z "},"\\":{"ha":515,"x_min":-15,"x_max":531,"o":"m 143 1015 l 531 -24 l 372 -24 l -15 1015 l 143 1015 z "},"]":{"ha":463,"x_min":1,"x_max":368,"o":"m 368 1015 l 368 -253 l 1 -253 l 1 -97 l 171 -97 l 171 860 l 1 860 l 1 1015 l 368 1015 z "},"^":{"ha":833,"x_min":85,"x_max":749,"o":"m 85 438 l 324 972 l 510 972 l 749 438 l 586 438 l 417 819 l 247 438 l 85 438 z "},"_":{"ha":694,"x_min":0,"x_max":694,"o":"m 0 -174 l 0 -104 l 694 -104 l 694 -174 l 0 -174 z "},"`":{"ha":360,"x_min":-67,"x_max":285,"o":"m 147 807 l -67 1004 l 151 1004 l 285 807 l 147 807 z "},"a":{"ha":797,"x_min":44,"x_max":744,"o":"m 522 278 l 522 351 q 490 334 511 342 q 452 324 469 326 q 404 317 435 321 q 358 310 374 313 q 272 276 303 299 q 242 204 242 253 q 363 113 242 113 q 522 278 522 113 m 264 497 l 67 497 q 170 681 75 625 q 404 738 265 738 q 719 533 719 738 l 719 160 q 744 0 719 40 l 544 0 q 531 69 532 39 q 289 -19 446 -19 q 113 35 181 -19 q 44 196 44 90 q 65 296 44 254 q 122 360 85 338 q 198 395 160 383 q 289 414 236 407 q 339 420 308 417 q 388 426 369 424 q 431 433 407 429 q 469 443 454 438 q 497 458 483 449 q 516 479 510 467 q 522 508 522 492 q 489 586 522 567 q 394 606 456 606 q 264 497 274 606 z "},"b":{"ha":849,"x_min":75,"x_max":799,"o":"m 75 0 l 75 992 l 272 992 l 272 631 l 275 631 q 501 738 346 738 q 710 640 621 738 q 799 360 799 543 q 710 78 799 175 q 501 -19 621 -19 q 265 92 326 -19 l 263 92 l 263 0 l 75 0 m 601 358 q 559 523 601 457 q 433 589 517 589 q 308 523 350 589 q 265 358 265 457 q 308 195 265 261 q 433 129 351 129 q 558 195 515 129 q 601 358 601 261 z "},"c":{"ha":797,"x_min":53,"x_max":761,"o":"m 757 465 l 564 465 q 418 589 544 589 q 291 519 332 589 q 250 356 250 449 q 290 197 250 265 q 414 129 329 129 q 521 168 481 129 q 571 275 561 207 l 761 275 q 651 57 743 133 q 415 -19 558 -19 q 153 83 254 -19 q 53 349 53 186 q 151 629 53 521 q 419 738 249 738 q 652 667 556 738 q 757 465 749 596 z "},"d":{"ha":849,"x_min":44,"x_max":775,"o":"m 588 0 l 588 92 l 585 92 q 367 -19 519 -19 q 128 93 213 -19 q 44 365 44 206 q 128 629 44 521 q 363 738 213 738 q 485 710 428 738 q 575 631 543 682 l 578 631 l 578 992 l 775 992 l 775 0 l 588 0 m 585 361 q 544 524 585 460 q 415 589 504 589 q 283 524 325 589 q 242 360 242 458 q 285 197 242 265 q 415 129 329 129 q 545 194 506 129 q 585 361 585 260 z "},"e":{"ha":797,"x_min":40,"x_max":756,"o":"m 756 311 l 238 311 q 414 129 246 129 q 515 158 471 129 q 569 222 560 186 l 743 222 q 407 -19 664 -19 q 140 85 239 -19 q 40 358 40 190 q 142 630 40 522 q 407 738 244 738 q 674 613 582 738 q 756 311 767 488 m 238 436 l 558 436 q 508 551 544 514 q 401 589 471 589 q 279 540 318 589 q 238 436 240 492 z "},"f":{"ha":463,"x_min":0,"x_max":463,"o":"m 118 0 l 118 586 l 0 586 l 0 718 l 118 718 l 118 774 q 180 932 118 872 q 358 992 242 992 q 415 989 378 992 q 463 986 453 986 l 463 839 q 390 843 426 843 q 333 824 350 843 q 315 761 315 806 l 315 718 l 451 718 l 451 586 l 315 586 l 315 0 l 118 0 z "},"g":{"ha":849,"x_min":53,"x_max":765,"o":"m 765 718 l 765 46 q 759 -33 765 4 q 729 -117 753 -71 q 667 -195 706 -162 q 558 -250 629 -228 q 393 -272 488 -272 q 178 -214 272 -272 q 76 -42 83 -156 l 272 -42 q 419 -140 296 -140 q 539 -92 499 -140 q 578 38 579 -43 l 578 132 l 575 132 q 486 49 544 78 q 360 21 428 21 q 130 122 207 21 q 53 382 53 224 q 135 634 53 531 q 361 738 217 738 q 575 622 510 738 l 578 622 l 578 718 l 765 718 m 410 169 q 534 227 490 169 q 578 368 578 285 q 538 527 578 465 q 410 589 499 589 q 290 531 331 589 q 250 385 250 472 q 288 233 250 296 q 410 169 326 169 z "},"h":{"ha":824,"x_min":75,"x_max":749,"o":"m 75 0 l 75 992 l 272 992 l 272 618 l 276 618 q 370 707 313 676 q 486 738 428 738 q 692 663 635 738 q 749 442 749 588 l 749 0 l 551 0 l 551 406 q 522 539 551 496 q 425 582 493 582 q 308 533 344 582 q 272 376 272 485 l 272 0 l 75 0 z "},"i":{"ha":358,"x_min":81,"x_max":278,"o":"m 81 0 l 81 718 l 278 718 l 278 0 l 81 0 m 278 992 l 278 829 l 81 829 l 81 992 l 278 992 z "},"j":{"ha":386,"x_min":-26,"x_max":290,"o":"m -26 -247 l -26 -85 q 17 -90 -10 -90 q 93 -26 93 -90 l 93 718 l 290 718 l 290 -36 q 236 -202 290 -151 q 38 -253 182 -253 q -26 -247 15 -253 m 290 992 l 290 829 l 93 829 l 93 992 l 290 992 z "},"k":{"ha":797,"x_min":93,"x_max":803,"o":"m 93 0 l 93 992 l 290 992 l 290 460 l 539 718 l 772 718 l 501 454 l 803 0 l 564 0 l 367 321 l 290 247 l 290 0 l 93 0 z "},"l":{"ha":358,"x_min":81,"x_max":278,"o":"m 81 0 l 81 992 l 278 992 l 278 0 l 81 0 z "},"m":{"ha":1258,"x_min":81,"x_max":1178,"o":"m 81 0 l 81 718 l 267 718 l 267 621 l 269 621 q 489 738 351 738 q 699 618 644 738 q 789 703 733 669 q 915 738 844 738 q 1108 676 1038 738 q 1178 481 1178 614 l 1178 0 l 981 0 l 981 407 q 979 463 981 440 q 971 510 978 485 q 951 549 964 535 q 916 572 939 563 q 860 582 893 582 q 728 400 728 582 l 728 0 l 531 0 l 531 403 q 531 413 531 406 q 530 463 531 446 q 523 506 529 479 q 505 547 517 533 q 469 571 493 560 q 411 582 446 582 q 374 575 393 582 q 331 552 354 568 q 292 501 307 536 q 278 417 278 465 l 278 0 l 81 0 z "},"n":{"ha":824,"x_min":75,"x_max":749,"o":"m 75 0 l 75 718 l 263 718 l 263 618 l 267 618 q 362 707 303 676 q 486 738 421 738 q 692 663 635 738 q 749 442 749 588 l 749 0 l 551 0 l 551 406 q 522 539 551 496 q 425 582 493 582 q 308 533 344 582 q 272 376 272 485 l 272 0 l 75 0 z "},"o":{"ha":849,"x_min":53,"x_max":796,"o":"m 53 358 q 154 634 53 531 q 424 738 256 738 q 694 634 593 738 q 796 358 796 531 q 694 84 796 188 q 424 -19 593 -19 q 154 84 256 -19 q 53 358 53 188 m 291 523 q 270 490 291 523 q 250 358 250 457 q 291 194 250 260 q 424 129 332 129 q 558 194 517 129 q 599 358 599 260 q 558 523 599 457 q 424 589 517 589 q 291 523 332 589 z "},"p":{"ha":849,"x_min":75,"x_max":806,"o":"m 75 -253 l 75 718 l 263 718 l 263 626 l 265 626 q 479 738 333 738 q 722 627 639 738 q 806 351 806 517 q 723 89 806 197 q 490 -19 640 -19 q 367 8 425 -19 q 275 89 310 36 l 272 89 l 272 -253 l 75 -253 m 438 129 q 568 194 528 129 q 608 357 608 258 q 566 522 608 454 q 436 589 524 589 q 306 522 346 589 q 265 357 265 456 q 307 194 265 260 q 438 129 349 129 z "},"q":{"ha":849,"x_min":44,"x_max":775,"o":"m 775 718 l 775 -253 l 578 -253 l 578 90 l 575 90 q 481 8 543 35 q 349 -19 418 -19 q 245 1 296 -19 q 148 63 194 21 q 73 180 101 104 q 44 354 44 256 q 128 626 44 514 q 367 738 213 738 q 585 626 522 738 l 588 626 l 588 718 l 775 718 m 242 358 q 282 194 242 260 q 413 129 322 129 q 543 193 501 129 q 585 356 585 257 q 544 520 585 451 q 417 589 503 589 q 285 522 328 589 q 242 358 242 456 z "},"r":{"ha":540,"x_min":75,"x_max":538,"o":"m 75 0 l 75 718 l 263 718 l 263 585 l 265 585 q 357 694 292 651 q 494 738 422 738 q 538 731 517 738 l 538 547 q 467 554 507 554 q 319 491 365 554 q 272 324 272 428 l 272 0 l 75 0 z "},"s":{"ha":746,"x_min":40,"x_max":706,"o":"m 40 233 l 228 233 q 272 142 229 172 q 379 113 315 113 q 469 135 431 113 q 508 204 508 157 q 495 242 508 226 q 449 272 482 258 q 381 293 415 285 q 285 315 347 301 q 200 339 235 326 q 130 373 165 351 q 76 428 94 394 q 57 507 57 461 q 83 619 57 572 q 156 692 110 667 q 255 727 203 717 q 369 738 307 738 q 588 684 501 738 q 686 508 675 631 l 499 508 q 364 606 492 606 q 254 539 254 606 q 260 512 254 524 q 280 491 267 500 q 306 476 293 482 q 343 463 319 469 q 384 453 367 457 q 431 442 401 449 q 478 432 460 436 q 645 364 585 407 q 706 231 706 321 q 612 40 706 100 q 378 -19 518 -19 q 142 41 238 -19 q 40 233 46 101 z "},"t":{"ha":489,"x_min":8,"x_max":469,"o":"m 325 933 l 325 718 l 469 718 l 469 586 l 325 586 l 325 231 q 342 164 325 181 q 408 147 358 147 q 469 153 442 147 l 469 -1 q 354 -8 428 -8 q 188 28 249 -8 q 128 163 128 64 l 128 586 l 8 586 l 8 718 l 128 718 l 128 933 l 325 933 z "},"u":{"ha":824,"x_min":75,"x_max":749,"o":"m 749 718 l 749 0 l 561 0 l 561 100 l 557 100 q 462 11 521 42 q 338 -19 403 -19 q 132 56 189 -19 q 75 276 75 131 l 75 718 l 272 718 l 272 313 q 301 179 272 222 q 399 136 331 136 q 515 185 479 136 q 551 342 551 233 l 551 718 l 749 718 z "},"v":{"ha":722,"x_min":7,"x_max":715,"o":"m 715 718 l 472 0 l 253 0 l 7 718 l 214 718 l 365 228 l 368 228 l 519 718 l 715 718 z "},"w":{"ha":1131,"x_min":8,"x_max":1122,"o":"m 1122 718 l 896 0 l 693 0 l 565 482 l 563 482 l 440 0 l 236 0 l 8 718 l 217 718 l 349 231 l 351 231 l 471 718 l 663 718 l 785 232 l 788 232 l 919 718 l 1122 718 z "},"x":{"ha":746,"x_min":0,"x_max":746,"o":"m 0 0 l 258 378 l 22 718 l 247 718 l 374 531 l 499 718 l 717 718 l 481 382 l 746 0 l 521 0 l 371 226 l 221 0 l 0 0 z "},"y":{"ha":721,"x_min":-8,"x_max":729,"o":"m 729 718 l 429 -90 q 340 -215 397 -178 q 182 -253 283 -253 q 61 -246 128 -253 l 61 -83 q 176 -90 163 -90 q 244 -43 225 -85 q 244 44 263 -1 l -8 718 l 203 718 l 365 226 l 368 226 l 525 718 l 729 718 z "},"z":{"ha":721,"x_min":31,"x_max":690,"o":"m 31 0 l 31 149 l 404 569 l 58 569 l 58 718 l 664 718 l 664 569 l 290 149 l 690 149 l 690 0 l 31 0 z "},"{":{"ha":463,"x_min":-12,"x_max":463,"o":"m 463 1015 l 463 860 l 388 860 q 313 758 313 860 l 313 547 q 175 383 313 401 l 175 379 q 267 339 222 375 q 313 226 313 303 l 313 4 q 388 -97 313 -97 l 463 -97 l 463 -253 l 286 -253 q 172 -202 229 -253 q 115 -65 115 -151 l 115 206 q 73 292 115 263 q -12 321 31 321 l -12 442 q 73 473 31 442 q 115 567 115 504 l 115 828 q 172 965 115 914 q 286 1015 229 1015 l 463 1015 z "},"|":{"ha":310,"x_min":81,"x_max":229,"o":"m 81 -297 l 81 1092 l 229 1092 l 229 -297 l 81 -297 z "},"}":{"ha":463,"x_min":0,"x_max":475,"o":"m 0 -253 l 0 -97 l 75 -97 q 150 4 150 -97 l 150 226 q 195 339 150 303 q 288 379 240 375 l 288 383 q 150 547 150 401 l 150 758 q 75 860 150 860 l 0 860 l 0 1015 l 176 1015 q 290 965 233 1015 q 347 828 347 914 l 347 567 q 390 473 347 504 q 475 442 432 442 l 475 321 q 390 292 432 321 q 347 206 347 263 l 347 -65 q 290 -202 347 -151 q 176 -253 233 -253 l 0 -253 z "},"~":{"ha":833,"x_min":93,"x_max":740,"o":"m 685 478 l 740 349 q 694 290 713 311 q 642 249 676 269 q 567 229 607 229 q 425 275 508 229 q 265 324 339 324 q 149 224 194 324 l 93 353 q 267 472 156 472 q 421 428 321 472 q 451 415 431 424 q 483 401 471 406 q 510 390 494 396 q 539 381 526 383 q 563 378 551 378 q 613 394 589 378 q 651 428 638 411 q 685 478 664 446 z "}," ":{"ha":386,"x_min":0,"x_max":0,"o":""},"¡":{"ha":386,"x_min":85,"x_max":303,"o":"m 303 738 l 303 524 l 85 524 l 85 738 l 303 738 m 90 -254 l 90 13 l 144 440 l 243 440 l 296 13 l 296 -254 l 90 -254 z "},"¢":{"ha":772,"x_min":29,"x_max":757,"o":"m 361 129 l 361 588 q 259 508 292 569 q 226 367 226 446 q 361 129 226 171 m 361 -160 l 361 -19 q 122 94 214 -10 q 29 347 29 197 q 117 617 29 510 q 361 738 204 724 l 361 856 l 443 856 l 443 738 q 657 660 564 736 q 754 464 750 583 l 561 464 q 524 549 557 514 q 443 589 490 585 l 443 129 q 528 183 493 139 q 564 282 563 228 l 757 282 q 659 72 746 153 q 443 -19 572 -8 l 443 -160 l 361 -160 z "},"£":{"ha":772,"x_min":29,"x_max":788,"o":"m 122 -24 l 36 106 q 193 336 193 207 q 167 429 193 376 l 29 429 l 29 547 l 118 547 q 75 630 94 578 q 56 739 56 682 q 149 935 56 856 q 411 1015 243 1015 q 660 925 571 1015 q 749 668 750 835 l 561 668 q 557 709 558 696 q 547 755 556 722 q 523 805 538 788 q 479 838 508 822 q 410 853 450 853 q 311 818 349 853 q 274 725 274 783 q 276 681 274 699 q 291 629 278 664 q 331 547 304 594 l 515 547 l 515 429 l 369 429 q 381 343 381 392 q 267 149 381 239 l 269 146 q 364 178 321 178 q 474 163 394 178 q 582 146 546 146 q 704 206 647 146 l 788 65 q 571 -24 694 -24 q 419 1 489 -24 q 282 29 339 29 q 122 -24 190 29 z "},"¤":{"ha":772,"x_min":28,"x_max":744,"o":"m 28 207 l 107 288 q 40 485 40 365 q 107 685 40 618 l 28 765 l 107 844 l 186 767 q 389 831 261 831 q 579 768 510 831 l 660 847 l 744 763 l 667 686 q 729 488 729 617 q 665 285 729 364 l 742 207 l 665 131 l 586 211 q 388 142 514 142 q 183 210 258 142 l 106 129 l 28 207 m 389 682 q 259 624 306 682 q 213 485 213 567 q 259 347 213 404 q 388 290 306 290 q 513 349 468 290 q 557 488 557 407 q 513 624 557 567 q 389 682 468 682 z "},"¥":{"ha":772,"x_min":-12,"x_max":801,"o":"m 499 0 l 288 0 l 288 192 l 69 192 l 69 324 l 288 324 l 288 388 l 268 428 l 69 428 l 69 560 l 201 560 l -12 992 l 214 992 l 397 560 l 576 992 l 801 992 l 586 560 l 718 560 l 718 428 l 519 428 l 499 388 l 499 324 l 718 324 l 718 192 l 499 192 l 499 0 z "},"¦":{"ha":310,"x_min":81,"x_max":229,"o":"m 81 -124 l 81 224 l 229 224 l 229 -124 l 81 -124 m 229 918 l 229 571 l 81 571 l 81 918 l 229 918 z "},"§":{"ha":772,"x_min":14,"x_max":758,"o":"m 524 399 l 294 528 q 257 542 265 543 q 207 510 228 539 q 186 449 186 481 q 231 381 186 404 l 481 244 q 522 235 503 235 q 567 260 547 235 q 586 311 586 286 q 524 399 586 365 m 686 747 l 514 747 q 482 833 514 800 q 396 867 450 867 q 323 842 356 867 q 290 778 290 817 q 297 747 290 761 q 317 718 303 732 q 347 694 332 704 q 386 670 361 683 q 428 649 411 657 q 477 626 446 640 q 526 603 508 611 q 697 494 636 551 q 758 347 758 436 q 719 224 758 279 q 614 144 679 168 q 690 -19 690 86 q 601 -191 690 -129 q 394 -253 511 -253 q 167 -185 254 -253 q 82 17 81 -118 l 254 17 q 390 -104 261 -104 q 464 -81 435 -104 q 493 -12 493 -57 q 490 13 493 1 q 477 37 486 25 q 460 58 468 49 q 435 78 451 67 q 406 96 418 89 q 372 114 394 103 q 337 131 350 125 q 297 149 324 138 q 257 168 271 161 q 78 281 143 222 q 14 432 14 340 q 163 635 14 582 q 103 775 103 699 q 190 951 103 886 q 393 1015 278 1015 q 603 944 521 1015 q 686 747 686 872 z "},"¨":{"ha":360,"x_min":-57,"x_max":417,"o":"m 229 829 l 229 992 l 417 992 l 417 829 l 229 829 m -57 829 l -57 992 l 131 992 l 131 829 l -57 829 z "},"©":{"ha":1111,"x_min":22,"x_max":1089,"o":"m 22 496 q 97 769 22 649 q 293 953 172 890 q 556 1015 414 1015 q 818 953 697 1015 q 1014 769 939 890 q 1089 496 1089 649 q 932 122 1089 267 q 556 -24 775 -24 q 179 122 336 -24 q 22 496 22 267 m 164 496 q 277 204 164 321 q 556 88 390 88 q 833 204 719 88 q 947 496 947 321 q 833 788 947 672 q 556 904 719 904 q 277 788 390 904 q 164 496 164 672 m 715 410 l 828 410 q 741 249 811 308 q 575 190 671 190 q 359 278 442 190 q 276 499 276 367 q 356 723 276 636 q 572 810 436 810 q 740 753 671 810 q 824 594 810 697 l 715 594 q 666 671 706 643 q 572 699 626 699 q 452 644 494 699 q 410 501 410 589 q 456 360 410 418 q 575 301 501 301 q 671 331 632 301 q 715 410 710 360 z "},"ª":{"ha":478,"x_min":14,"x_max":469,"o":"m 319 715 l 319 743 q 296 731 311 735 q 256 723 281 726 q 226 718 231 719 q 156 663 156 703 q 218 611 156 611 q 319 715 319 611 m 169 840 l 28 840 q 104 961 39 924 q 244 992 157 992 q 453 868 453 992 l 453 638 q 469 533 453 563 l 329 533 q 319 576 322 554 q 169 521 265 521 q 57 555 100 521 q 14 660 14 589 q 57 757 14 728 q 172 794 100 786 q 206 798 185 796 q 239 801 228 800 q 265 806 250 803 q 289 811 281 808 q 306 819 297 814 q 317 831 314 824 q 321 847 321 838 q 299 890 321 879 q 238 901 278 901 q 192 886 211 901 q 169 840 172 871 z "},"«":{"ha":617,"x_min":58,"x_max":558,"o":"m 558 111 l 340 285 l 340 472 l 558 643 l 558 476 l 433 378 l 558 278 l 558 111 m 276 111 l 58 285 l 58 472 l 276 643 l 276 476 l 151 378 l 276 278 l 276 111 z "},"¬":{"ha":833,"x_min":67,"x_max":767,"o":"m 767 564 l 767 138 l 618 138 l 618 415 l 67 415 l 67 564 l 767 564 z "},"­":{"ha":565,"x_min":74,"x_max":492,"o":"m 74 294 l 74 464 l 492 464 l 492 294 l 74 294 z "},"®":{"ha":1111,"x_min":22,"x_max":1089,"o":"m 22 497 q 179 871 22 726 q 556 1015 336 1015 q 932 871 775 1015 q 1089 497 1089 726 q 932 122 1089 267 q 556 -24 775 -24 q 179 122 336 -24 q 22 497 22 267 m 164 497 q 277 204 164 321 q 556 88 390 88 q 833 204 719 88 q 947 497 947 321 q 833 788 947 672 q 556 904 719 904 q 277 788 390 904 q 164 497 164 672 m 349 207 l 349 789 l 568 789 q 739 749 682 789 q 796 617 796 708 q 643 461 796 474 l 799 207 l 678 207 l 536 456 l 464 456 l 464 207 l 349 207 m 464 699 l 464 546 l 567 546 q 652 562 624 546 q 681 626 681 578 q 561 699 681 699 l 464 699 z "},"¯":{"ha":360,"x_min":-79,"x_max":439,"o":"m -79 856 l -79 960 l 439 960 l 439 856 l -79 856 z "},"°":{"ha":556,"x_min":72,"x_max":483,"o":"m 132 640 q 102 670 132 640 q 72 786 72 700 q 132 932 72 872 q 278 992 192 992 q 424 932 364 992 q 483 786 483 872 q 424 640 483 700 q 278 581 364 581 q 132 640 192 581 m 197 872 q 180 854 197 872 q 163 786 163 836 q 197 700 163 736 q 278 664 232 664 q 358 700 324 664 q 393 786 393 736 q 358 872 393 836 q 278 908 324 908 q 197 872 232 908 z "},"±":{"ha":833,"x_min":67,"x_max":768,"o":"m 492 703 l 492 521 l 768 521 l 768 372 l 492 372 l 492 190 l 343 190 l 343 372 l 67 372 l 67 521 l 343 521 l 343 703 l 492 703 m 67 0 l 67 149 l 768 149 l 768 0 l 67 0 z "},"²":{"ha":544,"x_min":38,"x_max":507,"o":"m 181 750 l 39 750 q 101 926 38 861 q 290 992 165 992 q 444 942 382 992 q 507 804 507 893 q 478 703 507 744 q 394 626 449 663 q 337 592 388 622 q 259 541 286 563 q 211 490 232 519 l 501 490 l 501 379 l 38 379 q 51 473 38 432 q 97 547 65 514 q 155 599 128 579 q 232 651 182 619 q 265 672 236 654 q 304 698 294 690 q 333 722 314 706 q 358 756 351 739 q 365 794 365 774 q 342 856 365 832 q 281 881 318 881 q 203 840 228 881 q 181 750 178 800 z "},"³":{"ha":544,"x_min":31,"x_max":514,"o":"m 228 644 l 228 742 q 272 743 256 742 q 313 750 289 744 q 348 769 336 756 q 360 807 360 783 q 334 860 360 840 q 274 881 308 881 q 205 852 231 881 q 181 781 179 824 l 47 781 q 110 935 50 878 q 272 992 169 992 q 427 947 361 992 q 493 821 493 901 q 469 745 493 778 q 401 701 446 713 l 401 699 q 483 653 453 689 q 514 568 514 617 q 445 419 514 472 q 274 367 376 367 q 94 424 160 367 q 31 589 29 482 l 164 589 q 194 510 167 542 q 271 478 221 478 q 343 503 314 478 q 372 565 372 528 q 360 610 372 593 q 321 635 347 628 q 277 643 294 642 q 228 644 260 644 z "},"´":{"ha":360,"x_min":75,"x_max":426,"o":"m 426 1004 l 213 807 l 75 807 l 208 1004 l 426 1004 z "},"µ":{"ha":824,"x_min":75,"x_max":749,"o":"m 749 718 l 749 0 l 561 0 l 561 100 l 557 100 q 469 13 522 44 q 376 -19 415 -19 q 272 14 303 -19 l 272 -253 l 75 -253 l 75 718 l 272 718 l 272 313 q 301 179 272 222 q 399 136 331 136 q 515 185 479 136 q 551 342 551 233 l 551 718 l 749 718 z "},"¶":{"ha":861,"x_min":3,"x_max":743,"o":"m 307 -231 l 307 496 q 83 562 164 496 q 3 739 3 628 q 90 934 3 876 q 336 992 178 992 l 743 992 l 743 -231 l 601 -231 l 601 881 l 449 881 l 449 -231 l 307 -231 z "},"·":{"ha":386,"x_min":76,"x_max":311,"o":"m 76 399 q 111 482 76 447 q 194 517 146 517 q 276 481 242 517 q 311 399 311 446 q 276 318 311 354 q 196 282 242 282 q 112 317 147 282 q 76 399 76 351 z "},"¸":{"ha":360,"x_min":17,"x_max":351,"o":"m 17 -272 l 46 -206 q 163 -231 104 -231 q 218 -183 218 -231 q 163 -139 218 -139 q 107 -149 133 -139 l 78 -115 l 160 3 l 228 3 l 174 -74 l 176 -74 q 224 -67 190 -67 q 313 -92 275 -67 q 351 -164 351 -117 q 189 -303 351 -303 q 17 -272 106 -303 z "},"¹":{"ha":544,"x_min":107,"x_max":401,"o":"m 401 979 l 401 379 l 260 379 l 260 760 l 107 760 l 107 864 q 285 979 268 858 l 401 979 z "},"º":{"ha":510,"x_min":17,"x_max":493,"o":"m 81 584 q 49 616 81 584 q 17 756 17 647 q 81 928 17 864 q 254 992 146 992 q 428 928 363 992 q 493 756 493 864 q 428 584 493 647 q 254 521 364 521 q 81 584 146 521 m 165 756 q 188 665 165 704 q 254 625 211 625 q 322 665 299 625 q 344 756 344 704 q 322 849 344 810 q 254 888 299 888 q 188 849 211 888 q 165 756 165 810 z "},"»":{"ha":617,"x_min":58,"x_max":558,"o":"m 340 643 l 558 472 l 558 285 l 340 111 l 340 278 l 465 378 l 340 476 l 340 643 m 58 643 l 276 472 l 276 285 l 58 111 l 58 278 l 183 378 l 58 476 l 58 643 z "},"¼":{"ha":1239,"x_min":33,"x_max":1169,"o":"m 957 0 l 957 124 l 690 124 l 690 253 l 951 583 l 1090 583 l 1090 235 l 1169 235 l 1169 124 l 1090 124 l 1090 0 l 957 0 m 957 235 l 957 435 l 954 435 l 796 235 l 957 235 m 211 -31 l 786 1003 l 904 1003 l 332 -31 l 211 -31 m 328 979 l 328 379 l 186 379 l 186 760 l 33 760 l 33 864 q 211 979 194 858 l 328 979 z "},"½":{"ha":1235,"x_min":33,"x_max":1175,"o":"m 211 -31 l 786 1003 l 904 1003 l 332 -31 l 211 -31 m 328 979 l 328 379 l 186 379 l 186 760 l 33 760 l 33 864 q 211 979 194 858 l 328 979 m 849 371 l 707 371 q 769 547 706 482 q 958 613 833 613 q 1113 563 1050 613 q 1175 425 1175 514 q 1146 324 1175 365 q 1063 247 1117 283 q 1005 213 1056 243 q 927 162 954 183 q 879 111 900 140 l 1169 111 l 1169 0 l 706 0 q 719 94 706 53 q 765 167 733 135 q 823 220 796 200 q 900 272 850 240 q 933 293 904 275 q 972 319 963 311 q 1001 343 982 326 q 1026 377 1019 360 q 1033 415 1033 394 q 1010 477 1033 453 q 949 501 986 501 q 871 461 896 501 q 849 371 846 421 z "},"¾":{"ha":1235,"x_min":54,"x_max":1197,"o":"m 985 0 l 985 124 l 718 124 l 718 253 l 979 583 l 1118 583 l 1118 235 l 1197 235 l 1197 124 l 1118 124 l 1118 0 l 985 0 m 985 235 l 985 435 l 982 435 l 824 235 l 985 235 m 332 -31 l 907 1003 l 1025 1003 l 453 -31 l 332 -31 m 251 644 l 251 742 q 296 743 279 742 q 336 750 313 744 q 372 769 360 756 q 383 807 383 783 q 358 860 383 840 q 297 881 332 881 q 228 852 254 881 q 204 781 203 824 l 71 781 q 133 935 74 878 q 296 992 193 992 q 451 947 385 992 q 517 821 517 901 q 493 745 517 778 q 425 701 469 713 l 425 699 q 507 653 476 689 q 538 568 538 617 q 469 419 538 472 q 297 367 400 367 q 118 424 183 367 q 54 589 53 482 l 188 589 q 217 510 190 542 q 294 478 244 478 q 367 503 338 478 q 396 565 396 528 q 383 610 396 593 q 344 635 371 628 q 301 643 318 642 q 251 644 283 644 z "},"¿":{"ha":772,"x_min":44,"x_max":725,"o":"m 521 71 l 725 71 q 631 -176 722 -81 q 390 -272 539 -272 q 226 -246 297 -272 q 118 -178 156 -219 q 63 -92 81 -136 q 44 -4 44 -47 q 75 137 44 86 q 161 231 106 188 q 186 249 168 236 q 213 269 204 263 q 235 288 221 275 q 258 309 250 300 q 275 332 265 318 q 290 361 285 346 q 297 393 294 376 l 297 446 l 485 446 l 485 383 q 448 253 479 301 q 364 165 417 206 q 285 90 300 115 q 263 15 263 58 q 381 -110 263 -110 q 485 -59 450 -110 q 521 71 519 -8 m 504 738 l 504 524 l 286 524 l 286 738 l 504 738 z "},"À":{"ha":951,"x_min":-10,"x_max":961,"o":"m -10 0 l 367 992 l 590 992 l 961 0 l 735 0 l 660 221 l 289 221 l 211 0 l -10 0 m 475 747 l 346 383 l 603 383 l 478 747 l 475 747 m 443 1081 l 229 1278 l 447 1278 l 581 1081 l 443 1081 z "},"Á":{"ha":951,"x_min":-10,"x_max":961,"o":"m -10 0 l 367 992 l 590 992 l 961 0 l 735 0 l 660 221 l 289 221 l 211 0 l -10 0 m 475 747 l 346 383 l 603 383 l 478 747 l 475 747 m 722 1278 l 508 1081 l 371 1081 l 504 1278 l 722 1278 z "},"Â":{"ha":951,"x_min":-10,"x_max":961,"o":"m -10 0 l 367 992 l 590 992 l 961 0 l 735 0 l 660 221 l 289 221 l 211 0 l -10 0 m 475 747 l 346 383 l 603 383 l 478 747 l 475 747 m 232 1081 l 386 1278 l 567 1278 l 719 1081 l 557 1081 l 471 1193 l 382 1081 l 232 1081 z "},"Ã":{"ha":951,"x_min":-10,"x_max":961,"o":"m -10 0 l 367 992 l 590 992 l 961 0 l 735 0 l 660 221 l 289 221 l 211 0 l -10 0 m 475 747 l 346 383 l 603 383 l 478 747 l 475 747 m 635 1265 l 731 1265 q 688 1163 708 1193 q 575 1107 649 1107 q 461 1131 535 1107 q 364 1154 396 1154 q 325 1140 338 1154 q 306 1096 313 1125 l 221 1096 q 276 1219 238 1172 q 396 1265 314 1265 q 485 1242 422 1265 q 576 1217 543 1217 q 621 1231 606 1217 q 635 1265 636 1244 z "},"Ä":{"ha":951,"x_min":-10,"x_max":961,"o":"m -10 0 l 367 992 l 590 992 l 961 0 l 735 0 l 660 221 l 289 221 l 211 0 l -10 0 m 475 747 l 346 383 l 603 383 l 478 747 l 475 747 m 525 1103 l 525 1265 l 713 1265 l 713 1103 l 525 1103 m 239 1103 l 239 1265 l 426 1265 l 426 1103 l 239 1103 z "},"Å":{"ha":951,"x_min":-10,"x_max":961,"o":"m -10 0 l 367 992 l 590 992 l 961 0 l 735 0 l 660 221 l 289 221 l 211 0 l -10 0 m 475 747 l 346 383 l 603 383 l 478 747 l 475 747 m 412 1254 q 400 1240 412 1254 q 388 1185 388 1226 q 412 1115 388 1143 q 475 1088 436 1088 q 539 1115 514 1088 q 564 1185 564 1143 q 539 1254 564 1226 q 475 1282 514 1282 q 412 1254 436 1282 m 356 1065 q 331 1090 356 1065 q 306 1185 306 1115 q 356 1304 306 1254 q 475 1354 406 1354 q 596 1304 546 1354 q 646 1185 646 1254 q 596 1065 646 1115 q 475 1015 546 1015 q 356 1065 406 1015 z "},"Æ":{"ha":1363,"x_min":-15,"x_max":1311,"o":"m 581 808 l 389 383 l 628 383 l 628 808 l 581 808 m -15 0 l 458 992 l 1300 992 l 1300 808 l 839 808 l 839 596 l 1272 596 l 1272 426 l 839 426 l 839 183 l 1311 183 l 1311 0 l 628 0 l 628 221 l 317 221 l 217 0 l -15 0 z "},"Ç":{"ha":1029,"x_min":53,"x_max":976,"o":"m 968 658 l 757 658 q 685 782 747 732 q 540 832 622 832 q 385 782 447 832 q 297 658 322 732 q 271 492 271 583 q 338 256 271 353 q 540 160 404 160 q 695 220 638 160 q 765 382 753 281 l 976 382 q 843 88 960 197 q 544 -24 726 -21 l 508 -74 l 511 -74 q 558 -67 525 -67 q 648 -92 610 -67 q 686 -164 686 -117 q 524 -303 686 -303 q 351 -272 440 -303 l 381 -206 q 497 -231 439 -231 q 553 -183 553 -231 q 497 -139 553 -139 q 442 -149 468 -139 l 413 -115 l 479 -19 q 167 144 282 1 q 53 492 53 286 q 184 867 53 719 q 540 1015 315 1015 q 829 920 710 1015 q 968 658 949 825 z "},"È":{"ha":900,"x_min":96,"x_max":849,"o":"m 96 0 l 96 992 l 838 992 l 838 808 l 314 808 l 314 596 l 794 596 l 794 426 l 314 426 l 314 183 l 849 183 l 849 0 l 96 0 m 418 1081 l 204 1278 l 422 1278 l 556 1081 l 418 1081 z "},"É":{"ha":900,"x_min":96,"x_max":849,"o":"m 96 0 l 96 992 l 838 992 l 838 808 l 314 808 l 314 596 l 794 596 l 794 426 l 314 426 l 314 183 l 849 183 l 849 0 l 96 0 m 697 1278 l 483 1081 l 346 1081 l 479 1278 l 697 1278 z "},"Ê":{"ha":900,"x_min":96,"x_max":849,"o":"m 96 0 l 96 992 l 838 992 l 838 808 l 314 808 l 314 596 l 794 596 l 794 426 l 314 426 l 314 183 l 849 183 l 849 0 l 96 0 m 207 1081 l 361 1278 l 542 1278 l 694 1081 l 532 1081 l 446 1193 l 357 1081 l 207 1081 z "},"Ë":{"ha":900,"x_min":96,"x_max":849,"o":"m 96 0 l 96 992 l 838 992 l 838 808 l 314 808 l 314 596 l 794 596 l 794 426 l 314 426 l 314 183 l 849 183 l 849 0 l 96 0 m 500 1103 l 500 1265 l 688 1265 l 688 1103 l 500 1103 m 214 1103 l 214 1265 l 401 1265 l 401 1103 l 214 1103 z "},"Ì":{"ha":410,"x_min":-42,"x_max":314,"o":"m 96 0 l 96 992 l 314 992 l 314 0 l 96 0 m 172 1081 l -42 1278 l 176 1278 l 310 1081 l 172 1081 z "},"Í":{"ha":410,"x_min":96,"x_max":451,"o":"m 96 0 l 96 992 l 314 992 l 314 0 l 96 0 m 451 1278 l 238 1081 l 100 1081 l 233 1278 l 451 1278 z "},"Î":{"ha":410,"x_min":-39,"x_max":449,"o":"m 96 0 l 96 992 l 314 992 l 314 0 l 96 0 m -39 1081 l 115 1278 l 296 1278 l 449 1081 l 286 1081 l 200 1193 l 111 1081 l -39 1081 z "},"Ï":{"ha":410,"x_min":-32,"x_max":442,"o":"m 96 0 l 96 992 l 314 992 l 314 0 l 96 0 m 254 1103 l 254 1265 l 442 1265 l 442 1103 l 254 1103 m -32 1103 l -32 1265 l 156 1265 l 156 1103 l -32 1103 z "},"Ð":{"ha":1029,"x_min":4,"x_max":974,"o":"m 96 0 l 96 432 l 4 432 l 4 593 l 96 593 l 96 992 l 524 992 q 849 866 725 992 q 974 501 974 740 q 858 138 974 276 q 524 0 743 0 l 96 0 m 314 808 l 314 593 l 536 593 l 536 431 l 314 431 l 314 183 l 508 183 q 685 256 614 183 q 756 481 756 328 q 690 724 756 640 q 469 808 625 808 l 314 808 z "},"Ñ":{"ha":1029,"x_min":96,"x_max":933,"o":"m 96 0 l 96 992 l 313 992 l 726 326 l 729 326 l 729 992 l 933 992 l 933 0 l 715 0 l 303 664 l 300 664 l 300 0 l 96 0 m 674 1265 l 769 1265 q 726 1163 747 1193 q 614 1107 688 1107 q 500 1131 574 1107 q 403 1154 435 1154 q 364 1140 376 1154 q 344 1096 351 1125 l 260 1096 q 315 1219 276 1172 q 435 1265 353 1265 q 524 1242 461 1265 q 615 1217 582 1217 q 660 1231 644 1217 q 674 1265 675 1244 z "},"Ò":{"ha":1081,"x_min":53,"x_max":1028,"o":"m 53 492 q 184 867 53 719 q 540 1015 315 1015 q 897 867 765 1015 q 1028 492 1028 719 q 896 123 1028 269 q 540 -24 764 -24 q 185 123 317 -24 q 53 492 53 269 m 271 492 q 338 256 271 353 q 540 160 404 160 q 743 256 676 160 q 810 492 810 353 q 784 658 810 583 q 696 782 758 732 q 540 832 633 832 q 385 782 447 832 q 297 658 322 732 q 271 492 271 583 m 508 1081 l 294 1278 l 513 1278 l 646 1081 l 508 1081 z "},"Ó":{"ha":1081,"x_min":53,"x_max":1028,"o":"m 53 492 q 184 867 53 719 q 540 1015 315 1015 q 897 867 765 1015 q 1028 492 1028 719 q 896 123 1028 269 q 540 -24 764 -24 q 185 123 317 -24 q 53 492 53 269 m 271 492 q 338 256 271 353 q 540 160 404 160 q 743 256 676 160 q 810 492 810 353 q 784 658 810 583 q 696 782 758 732 q 540 832 633 832 q 385 782 447 832 q 297 658 322 732 q 271 492 271 583 m 788 1278 l 574 1081 l 436 1081 l 569 1278 l 788 1278 z "},"Ô":{"ha":1081,"x_min":53,"x_max":1028,"o":"m 53 492 q 184 867 53 719 q 540 1015 315 1015 q 897 867 765 1015 q 1028 492 1028 719 q 896 123 1028 269 q 540 -24 764 -24 q 185 123 317 -24 q 53 492 53 269 m 271 492 q 338 256 271 353 q 540 160 404 160 q 743 256 676 160 q 810 492 810 353 q 784 658 810 583 q 696 782 758 732 q 540 832 633 832 q 385 782 447 832 q 297 658 322 732 q 271 492 271 583 m 297 1081 l 451 1278 l 632 1278 l 785 1081 l 622 1081 l 536 1193 l 447 1081 l 297 1081 z "},"Õ":{"ha":1081,"x_min":53,"x_max":1028,"o":"m 53 492 q 184 867 53 719 q 540 1015 315 1015 q 897 867 765 1015 q 1028 492 1028 719 q 896 123 1028 269 q 540 -24 764 -24 q 185 123 317 -24 q 53 492 53 269 m 271 492 q 338 256 271 353 q 540 160 404 160 q 743 256 676 160 q 810 492 810 353 q 784 658 810 583 q 696 782 758 732 q 540 832 633 832 q 385 782 447 832 q 297 658 322 732 q 271 492 271 583 m 700 1265 l 796 1265 q 753 1163 774 1193 q 640 1107 714 1107 q 526 1131 600 1107 q 429 1154 461 1154 q 390 1140 403 1154 q 371 1096 378 1125 l 286 1096 q 341 1219 303 1172 q 461 1265 379 1265 q 550 1242 488 1265 q 642 1217 608 1217 q 686 1231 671 1217 q 700 1265 701 1244 z "},"Ö":{"ha":1081,"x_min":53,"x_max":1028,"o":"m 53 492 q 184 867 53 719 q 540 1015 315 1015 q 897 867 765 1015 q 1028 492 1028 719 q 896 123 1028 269 q 540 -24 764 -24 q 185 123 317 -24 q 53 492 53 269 m 271 492 q 338 256 271 353 q 540 160 404 160 q 743 256 676 160 q 810 492 810 353 q 784 658 810 583 q 696 782 758 732 q 540 832 633 832 q 385 782 447 832 q 297 658 322 732 q 271 492 271 583 m 590 1103 l 590 1265 l 778 1265 l 778 1103 l 590 1103 m 304 1103 l 304 1265 l 492 1265 l 492 1103 l 304 1103 z "},"×":{"ha":833,"x_min":89,"x_max":746,"o":"m 194 24 l 89 129 l 313 351 l 92 574 l 197 679 l 418 457 l 640 679 l 746 574 l 522 351 l 746 129 l 640 24 l 418 247 l 194 24 z "},"Ø":{"ha":1081,"x_min":47,"x_max":1033,"o":"m 47 14 l 167 146 q 53 492 53 285 q 184 867 53 719 q 540 1015 315 1015 q 853 908 728 1015 l 964 1032 l 1033 971 l 917 842 q 1028 492 1028 700 q 896 123 1028 269 q 540 -24 764 -24 q 231 82 354 -24 l 115 -46 l 47 14 m 310 304 l 721 761 q 540 832 653 832 q 385 782 447 832 q 297 658 322 732 q 271 492 271 583 q 310 304 271 383 m 772 681 l 363 228 q 540 160 431 160 q 743 256 676 160 q 810 492 810 353 q 772 681 810 600 z "},"Ù":{"ha":1029,"x_min":92,"x_max":938,"o":"m 938 992 l 938 375 q 827 77 938 178 q 514 -24 717 -24 q 201 76 310 -24 q 92 375 92 176 l 92 992 l 310 992 l 310 375 q 352 218 310 276 q 514 160 394 160 q 674 210 628 160 q 719 375 719 261 l 719 992 l 938 992 m 482 1081 l 268 1278 l 486 1278 l 619 1081 l 482 1081 z "},"Ú":{"ha":1029,"x_min":92,"x_max":938,"o":"m 938 992 l 938 375 q 827 77 938 178 q 514 -24 717 -24 q 201 76 310 -24 q 92 375 92 176 l 92 992 l 310 992 l 310 375 q 352 218 310 276 q 514 160 394 160 q 674 210 628 160 q 719 375 719 261 l 719 992 l 938 992 m 761 1278 l 547 1081 l 410 1081 l 543 1278 l 761 1278 z "},"Û":{"ha":1029,"x_min":92,"x_max":938,"o":"m 938 992 l 938 375 q 827 77 938 178 q 514 -24 717 -24 q 201 76 310 -24 q 92 375 92 176 l 92 992 l 310 992 l 310 375 q 352 218 310 276 q 514 160 394 160 q 674 210 628 160 q 719 375 719 261 l 719 992 l 938 992 m 271 1081 l 425 1278 l 606 1278 l 758 1081 l 596 1081 l 510 1193 l 421 1081 l 271 1081 z "},"Ü":{"ha":1029,"x_min":92,"x_max":938,"o":"m 938 992 l 938 375 q 827 77 938 178 q 514 -24 717 -24 q 201 76 310 -24 q 92 375 92 176 l 92 992 l 310 992 l 310 375 q 352 218 310 276 q 514 160 394 160 q 674 210 628 160 q 719 375 719 261 l 719 992 l 938 992 m 564 1103 l 564 1265 l 751 1265 l 751 1103 l 564 1103 m 278 1103 l 278 1265 l 465 1265 l 465 1103 l 278 1103 z "},"Ý":{"ha":926,"x_min":-12,"x_max":939,"o":"m 353 0 l 353 386 l -12 992 l 233 992 l 465 600 l 696 992 l 939 992 l 571 381 l 571 0 l 353 0 m 710 1278 l 496 1081 l 358 1081 l 492 1278 l 710 1278 z "},"Þ":{"ha":926,"x_min":96,"x_max":886,"o":"m 96 0 l 96 992 l 314 992 l 314 857 l 543 857 q 741 810 661 857 q 853 694 821 763 q 886 539 886 625 q 853 384 886 453 q 741 268 821 315 q 543 221 661 221 l 314 221 l 314 0 l 96 0 m 314 688 l 314 390 l 483 390 q 624 422 572 390 q 675 539 675 453 q 624 656 675 625 q 483 688 572 688 l 314 688 z "},"ß":{"ha":849,"x_min":78,"x_max":771,"o":"m 78 0 l 78 682 q 404 1015 75 1015 q 628 947 538 1015 q 719 749 719 879 q 683 628 719 683 q 590 556 647 574 l 590 553 q 724 465 678 533 q 771 304 771 397 q 685 76 771 172 q 469 -19 599 -19 q 356 -11 411 -19 l 356 150 q 413 143 378 143 q 528 192 482 143 q 574 311 574 240 q 531 435 574 389 q 404 481 489 481 q 356 478 389 481 l 356 608 q 386 606 378 606 q 490 637 447 606 q 532 729 532 668 q 399 853 532 853 q 308 816 340 853 q 275 717 275 779 l 275 0 l 78 0 z "},"à":{"ha":797,"x_min":44,"x_max":744,"o":"m 522 278 l 522 351 q 490 334 511 342 q 452 324 469 326 q 404 317 435 321 q 358 310 374 313 q 272 276 303 299 q 242 204 242 253 q 363 113 242 113 q 522 278 522 113 m 264 497 l 67 497 q 170 681 75 625 q 404 738 265 738 q 719 533 719 738 l 719 160 q 744 0 719 40 l 544 0 q 531 69 532 39 q 289 -19 446 -19 q 113 35 181 -19 q 44 196 44 90 q 65 296 44 254 q 122 360 85 338 q 198 395 160 383 q 289 414 236 407 q 339 420 308 417 q 388 426 369 424 q 431 433 407 429 q 469 443 454 438 q 497 458 483 449 q 516 479 510 467 q 522 508 522 492 q 489 586 522 567 q 394 606 456 606 q 264 497 274 606 m 367 807 l 153 1004 l 371 1004 l 504 807 l 367 807 z "},"á":{"ha":797,"x_min":44,"x_max":744,"o":"m 522 278 l 522 351 q 490 334 511 342 q 452 324 469 326 q 404 317 435 321 q 358 310 374 313 q 272 276 303 299 q 242 204 242 253 q 363 113 242 113 q 522 278 522 113 m 264 497 l 67 497 q 170 681 75 625 q 404 738 265 738 q 719 533 719 738 l 719 160 q 744 0 719 40 l 544 0 q 531 69 532 39 q 289 -19 446 -19 q 113 35 181 -19 q 44 196 44 90 q 65 296 44 254 q 122 360 85 338 q 198 395 160 383 q 289 414 236 407 q 339 420 308 417 q 388 426 369 424 q 431 433 407 429 q 469 443 454 438 q 497 458 483 449 q 516 479 510 467 q 522 508 522 492 q 489 586 522 567 q 394 606 456 606 q 264 497 274 606 m 646 1004 l 432 807 l 294 807 l 428 1004 l 646 1004 z "},"â":{"ha":797,"x_min":44,"x_max":744,"o":"m 522 278 l 522 351 q 490 334 511 342 q 452 324 469 326 q 404 317 435 321 q 358 310 374 313 q 272 276 303 299 q 242 204 242 253 q 363 113 242 113 q 522 278 522 113 m 264 497 l 67 497 q 170 681 75 625 q 404 738 265 738 q 719 533 719 738 l 719 160 q 744 0 719 40 l 544 0 q 531 69 532 39 q 289 -19 446 -19 q 113 35 181 -19 q 44 196 44 90 q 65 296 44 254 q 122 360 85 338 q 198 395 160 383 q 289 414 236 407 q 339 420 308 417 q 388 426 369 424 q 431 433 407 429 q 469 443 454 438 q 497 458 483 449 q 516 479 510 467 q 522 508 522 492 q 489 586 522 567 q 394 606 456 606 q 264 497 274 606 m 156 807 l 310 1004 l 490 1004 l 643 807 l 481 807 l 394 919 l 306 807 l 156 807 z "},"ã":{"ha":797,"x_min":44,"x_max":744,"o":"m 522 278 l 522 351 q 490 334 511 342 q 452 324 469 326 q 404 317 435 321 q 358 310 374 313 q 272 276 303 299 q 242 204 242 253 q 363 113 242 113 q 522 278 522 113 m 264 497 l 67 497 q 170 681 75 625 q 404 738 265 738 q 719 533 719 738 l 719 160 q 744 0 719 40 l 544 0 q 531 69 532 39 q 289 -19 446 -19 q 113 35 181 -19 q 44 196 44 90 q 65 296 44 254 q 122 360 85 338 q 198 395 160 383 q 289 414 236 407 q 339 420 308 417 q 388 426 369 424 q 431 433 407 429 q 469 443 454 438 q 497 458 483 449 q 516 479 510 467 q 522 508 522 492 q 489 586 522 567 q 394 606 456 606 q 264 497 274 606 m 558 992 l 654 992 q 611 889 632 919 q 499 833 572 833 q 385 857 458 833 q 288 881 319 881 q 249 866 261 881 q 229 822 236 851 l 144 822 q 199 945 161 899 q 319 992 238 992 q 408 968 346 992 q 500 943 467 943 q 544 957 529 943 q 558 992 560 971 z "},"ä":{"ha":797,"x_min":44,"x_max":744,"o":"m 522 278 l 522 351 q 490 334 511 342 q 452 324 469 326 q 404 317 435 321 q 358 310 374 313 q 272 276 303 299 q 242 204 242 253 q 363 113 242 113 q 522 278 522 113 m 264 497 l 67 497 q 170 681 75 625 q 404 738 265 738 q 719 533 719 738 l 719 160 q 744 0 719 40 l 544 0 q 531 69 532 39 q 289 -19 446 -19 q 113 35 181 -19 q 44 196 44 90 q 65 296 44 254 q 122 360 85 338 q 198 395 160 383 q 289 414 236 407 q 339 420 308 417 q 388 426 369 424 q 431 433 407 429 q 469 443 454 438 q 497 458 483 449 q 516 479 510 467 q 522 508 522 492 q 489 586 522 567 q 394 606 456 606 q 264 497 274 606 m 449 829 l 449 992 l 636 992 l 636 829 l 449 829 m 163 829 l 163 992 l 350 992 l 350 829 l 163 829 z "},"å":{"ha":797,"x_min":44,"x_max":744,"o":"m 522 278 l 522 351 q 490 334 511 342 q 452 324 469 326 q 404 317 435 321 q 358 310 374 313 q 272 276 303 299 q 242 204 242 253 q 363 113 242 113 q 522 278 522 113 m 264 497 l 67 497 q 170 681 75 625 q 404 738 265 738 q 719 533 719 738 l 719 160 q 744 0 719 40 l 544 0 q 531 69 532 39 q 289 -19 446 -19 q 113 35 181 -19 q 44 196 44 90 q 65 296 44 254 q 122 360 85 338 q 198 395 160 383 q 289 414 236 407 q 339 420 308 417 q 388 426 369 424 q 431 433 407 429 q 469 443 454 438 q 497 458 483 449 q 516 479 510 467 q 522 508 522 492 q 489 586 522 567 q 394 606 456 606 q 264 497 274 606 m 335 981 q 323 967 335 981 q 311 911 311 953 q 335 842 311 869 q 399 814 360 814 q 463 842 438 814 q 488 911 488 869 q 463 981 488 953 q 399 1008 438 1008 q 335 981 360 1008 m 279 792 q 254 817 279 792 q 229 911 229 842 q 279 1031 229 981 q 399 1081 329 1081 q 519 1031 469 1081 q 569 911 569 981 q 519 792 569 842 q 399 742 469 742 q 279 792 329 742 z "},"æ":{"ha":1260,"x_min":53,"x_max":1219,"o":"m 535 261 l 535 350 q 500 331 522 339 q 460 321 478 324 q 411 313 443 318 q 365 306 379 308 q 281 274 311 296 q 250 206 250 253 q 372 113 250 113 q 485 151 435 113 q 535 261 535 189 m 1219 311 l 707 311 q 752 174 704 235 q 878 113 800 113 q 1021 225 1001 113 l 1213 225 q 1092 47 1183 113 q 882 -19 1001 -19 q 614 103 699 -19 q 488 10 567 40 q 321 -19 408 -19 q 130 32 207 -19 q 53 194 53 83 q 72 294 53 253 q 129 360 92 336 q 204 394 167 383 q 293 414 242 406 q 482 447 456 438 q 535 514 535 467 q 407 606 535 606 q 269 494 274 606 l 72 494 q 126 637 75 581 q 249 715 178 693 q 411 738 321 738 q 649 640 583 738 q 889 738 732 738 q 1042 703 976 738 q 1145 608 1107 668 q 1201 473 1183 547 q 1219 311 1219 399 m 707 436 l 1022 436 q 981 556 1024 506 q 868 606 939 606 q 752 556 796 606 q 707 436 708 506 z "},"ç":{"ha":797,"x_min":53,"x_max":761,"o":"m 757 465 l 564 465 q 418 589 544 589 q 291 519 332 589 q 250 356 250 449 q 290 197 250 265 q 414 129 329 129 q 521 168 481 129 q 571 275 561 207 l 761 275 q 656 62 743 138 q 432 -18 569 -14 l 393 -74 l 396 -74 q 443 -67 410 -67 q 533 -92 494 -67 q 571 -164 571 -117 q 408 -303 571 -303 q 236 -272 325 -303 l 265 -206 q 382 -231 324 -231 q 438 -183 438 -231 q 382 -139 438 -139 q 326 -149 353 -139 l 297 -115 l 367 -15 q 139 99 225 -1 q 53 349 53 200 q 151 629 53 521 q 419 738 249 738 q 652 667 556 738 q 757 465 749 596 z "},"è":{"ha":797,"x_min":40,"x_max":756,"o":"m 756 311 l 238 311 q 414 129 246 129 q 515 158 471 129 q 569 222 560 186 l 743 222 q 407 -19 664 -19 q 140 85 239 -19 q 40 358 40 190 q 142 630 40 522 q 407 738 244 738 q 674 613 582 738 q 756 311 767 488 m 238 436 l 558 436 q 508 551 544 514 q 401 589 471 589 q 279 540 318 589 q 238 436 240 492 m 367 807 l 153 1004 l 371 1004 l 504 807 l 367 807 z "},"é":{"ha":797,"x_min":40,"x_max":756,"o":"m 756 311 l 238 311 q 414 129 246 129 q 515 158 471 129 q 569 222 560 186 l 743 222 q 407 -19 664 -19 q 140 85 239 -19 q 40 358 40 190 q 142 630 40 522 q 407 738 244 738 q 674 613 582 738 q 756 311 767 488 m 238 436 l 558 436 q 508 551 544 514 q 401 589 471 589 q 279 540 318 589 q 238 436 240 492 m 646 1004 l 432 807 l 294 807 l 428 1004 l 646 1004 z "},"ê":{"ha":797,"x_min":40,"x_max":756,"o":"m 756 311 l 238 311 q 414 129 246 129 q 515 158 471 129 q 569 222 560 186 l 743 222 q 407 -19 664 -19 q 140 85 239 -19 q 40 358 40 190 q 142 630 40 522 q 407 738 244 738 q 674 613 582 738 q 756 311 767 488 m 238 436 l 558 436 q 508 551 544 514 q 401 589 471 589 q 279 540 318 589 q 238 436 240 492 m 156 807 l 310 1004 l 490 1004 l 643 807 l 481 807 l 394 919 l 306 807 l 156 807 z "},"ë":{"ha":797,"x_min":40,"x_max":756,"o":"m 756 311 l 238 311 q 414 129 246 129 q 515 158 471 129 q 569 222 560 186 l 743 222 q 407 -19 664 -19 q 140 85 239 -19 q 40 358 40 190 q 142 630 40 522 q 407 738 244 738 q 674 613 582 738 q 756 311 767 488 m 238 436 l 558 436 q 508 551 544 514 q 401 589 471 589 q 279 540 318 589 q 238 436 240 492 m 449 829 l 449 992 l 636 992 l 636 829 l 449 829 m 163 829 l 163 992 l 350 992 l 350 829 l 163 829 z "},"ì":{"ha":358,"x_min":-67,"x_max":285,"o":"m 81 0 l 81 718 l 278 718 l 278 0 l 81 0 m 147 807 l -67 1004 l 151 1004 l 285 807 l 147 807 z "},"í":{"ha":358,"x_min":75,"x_max":426,"o":"m 81 0 l 81 718 l 278 718 l 278 0 l 81 0 m 426 1004 l 213 807 l 75 807 l 208 1004 l 426 1004 z "},"î":{"ha":358,"x_min":-64,"x_max":424,"o":"m 81 0 l 81 718 l 278 718 l 278 0 l 81 0 m -64 807 l 90 1004 l 271 1004 l 424 807 l 261 807 l 175 919 l 86 807 l -64 807 z "},"ï":{"ha":358,"x_min":-57,"x_max":417,"o":"m 81 0 l 81 718 l 278 718 l 278 0 l 81 0 m 229 829 l 229 992 l 417 992 l 417 829 l 229 829 m -57 829 l -57 992 l 131 992 l 131 829 l -57 829 z "},"ð":{"ha":849,"x_min":53,"x_max":796,"o":"m 424 129 q 558 194 517 129 q 599 358 599 260 q 555 508 599 446 q 422 571 511 571 q 292 508 333 571 q 250 358 250 446 q 291 194 250 260 q 424 129 332 129 m 185 824 l 333 899 q 217 968 272 942 l 344 1064 q 482 972 419 1022 l 653 1058 l 725 976 l 567 897 q 796 379 801 671 q 694 93 796 206 q 424 -19 592 -19 q 154 81 256 -19 q 53 343 53 182 q 85 513 53 433 q 192 647 117 592 q 372 703 267 703 q 560 647 481 703 l 563 647 q 421 824 526 731 l 265 746 l 185 824 z "},"ñ":{"ha":824,"x_min":75,"x_max":749,"o":"m 75 0 l 75 718 l 263 718 l 263 618 l 267 618 q 362 707 303 676 q 486 738 421 738 q 692 663 635 738 q 749 442 749 588 l 749 0 l 551 0 l 551 406 q 522 539 551 496 q 425 582 493 582 q 308 533 344 582 q 272 376 272 485 l 272 0 l 75 0 m 571 992 l 667 992 q 624 889 644 919 q 511 833 585 833 q 397 857 471 833 q 300 881 332 881 q 261 866 274 881 q 242 822 249 851 l 157 822 q 212 945 174 899 q 332 992 250 992 q 421 968 358 992 q 513 943 479 943 q 557 957 542 943 q 571 992 572 971 z "},"ò":{"ha":849,"x_min":53,"x_max":796,"o":"m 53 358 q 154 634 53 531 q 424 738 256 738 q 694 634 593 738 q 796 358 796 531 q 694 84 796 188 q 424 -19 593 -19 q 154 84 256 -19 q 53 358 53 188 m 291 523 q 270 490 291 523 q 250 358 250 457 q 291 194 250 260 q 424 129 332 129 q 558 194 517 129 q 599 358 599 260 q 558 523 599 457 q 424 589 517 589 q 291 523 332 589 m 392 807 l 178 1004 l 396 1004 l 529 807 l 392 807 z "},"ó":{"ha":849,"x_min":53,"x_max":796,"o":"m 53 358 q 154 634 53 531 q 424 738 256 738 q 694 634 593 738 q 796 358 796 531 q 694 84 796 188 q 424 -19 593 -19 q 154 84 256 -19 q 53 358 53 188 m 291 523 q 270 490 291 523 q 250 358 250 457 q 291 194 250 260 q 424 129 332 129 q 558 194 517 129 q 599 358 599 260 q 558 523 599 457 q 424 589 517 589 q 291 523 332 589 m 671 1004 l 457 807 l 319 807 l 453 1004 l 671 1004 z "},"ô":{"ha":849,"x_min":53,"x_max":796,"o":"m 53 358 q 154 634 53 531 q 424 738 256 738 q 694 634 593 738 q 796 358 796 531 q 694 84 796 188 q 424 -19 593 -19 q 154 84 256 -19 q 53 358 53 188 m 291 523 q 270 490 291 523 q 250 358 250 457 q 291 194 250 260 q 424 129 332 129 q 558 194 517 129 q 599 358 599 260 q 558 523 599 457 q 424 589 517 589 q 291 523 332 589 m 181 807 l 335 1004 l 515 1004 l 668 807 l 506 807 l 419 919 l 331 807 l 181 807 z "},"õ":{"ha":849,"x_min":53,"x_max":796,"o":"m 53 358 q 154 634 53 531 q 424 738 256 738 q 694 634 593 738 q 796 358 796 531 q 694 84 796 188 q 424 -19 593 -19 q 154 84 256 -19 q 53 358 53 188 m 291 523 q 270 490 291 523 q 250 358 250 457 q 291 194 250 260 q 424 129 332 129 q 558 194 517 129 q 599 358 599 260 q 558 523 599 457 q 424 589 517 589 q 291 523 332 589 m 583 992 l 679 992 q 636 889 657 919 q 524 833 597 833 q 410 857 483 833 q 313 881 344 881 q 274 866 286 881 q 254 822 261 851 l 169 822 q 224 945 186 899 q 344 992 263 992 q 433 968 371 992 q 525 943 492 943 q 569 957 554 943 q 583 992 585 971 z "},"ö":{"ha":849,"x_min":53,"x_max":796,"o":"m 53 358 q 154 634 53 531 q 424 738 256 738 q 694 634 593 738 q 796 358 796 531 q 694 84 796 188 q 424 -19 593 -19 q 154 84 256 -19 q 53 358 53 188 m 291 523 q 270 490 291 523 q 250 358 250 457 q 291 194 250 260 q 424 129 332 129 q 558 194 517 129 q 599 358 599 260 q 558 523 599 457 q 424 589 517 589 q 291 523 332 589 m 474 829 l 474 992 l 661 992 l 661 829 l 474 829 m 188 829 l 188 992 l 375 992 l 375 829 l 188 829 z "},"÷":{"ha":833,"x_min":67,"x_max":768,"o":"m 67 276 l 67 425 l 768 425 l 768 276 l 67 276 m 300 639 q 335 722 300 688 q 418 757 369 757 q 500 722 465 757 q 535 639 535 686 q 500 558 535 594 q 419 522 465 522 q 335 557 371 522 q 300 639 300 592 m 335 -21 q 318 -3 335 -21 q 300 63 300 14 q 335 145 300 111 q 418 179 369 179 q 500 144 465 179 q 535 63 535 110 q 500 -19 535 18 q 419 -56 465 -56 q 335 -21 371 -56 z "},"ø":{"ha":849,"x_min":53,"x_max":796,"o":"m 271 239 l 539 544 q 424 589 497 589 q 291 523 332 589 q 250 358 250 457 q 271 239 250 286 m 576 485 l 306 176 q 424 129 349 129 q 558 194 517 129 q 599 358 599 260 q 576 485 599 431 m 61 1 l 144 96 q 53 358 53 196 q 154 634 53 531 q 424 738 256 738 q 650 671 556 738 l 724 756 l 775 711 l 700 626 q 796 358 796 524 q 694 84 796 188 q 424 -19 593 -19 q 194 50 289 -19 l 113 -43 l 61 1 z "},"ù":{"ha":824,"x_min":75,"x_max":749,"o":"m 749 718 l 749 0 l 561 0 l 561 100 l 557 100 q 462 11 521 42 q 338 -19 403 -19 q 132 56 189 -19 q 75 276 75 131 l 75 718 l 272 718 l 272 313 q 301 179 272 222 q 399 136 331 136 q 515 185 479 136 q 551 342 551 233 l 551 718 l 749 718 m 379 807 l 165 1004 l 383 1004 l 517 807 l 379 807 z "},"ú":{"ha":824,"x_min":75,"x_max":749,"o":"m 749 718 l 749 0 l 561 0 l 561 100 l 557 100 q 462 11 521 42 q 338 -19 403 -19 q 132 56 189 -19 q 75 276 75 131 l 75 718 l 272 718 l 272 313 q 301 179 272 222 q 399 136 331 136 q 515 185 479 136 q 551 342 551 233 l 551 718 l 749 718 m 658 1004 l 444 807 l 307 807 l 440 1004 l 658 1004 z "},"û":{"ha":824,"x_min":75,"x_max":749,"o":"m 749 718 l 749 0 l 561 0 l 561 100 l 557 100 q 462 11 521 42 q 338 -19 403 -19 q 132 56 189 -19 q 75 276 75 131 l 75 718 l 272 718 l 272 313 q 301 179 272 222 q 399 136 331 136 q 515 185 479 136 q 551 342 551 233 l 551 718 l 749 718 m 168 807 l 322 1004 l 503 1004 l 656 807 l 493 807 l 407 919 l 318 807 l 168 807 z "},"ü":{"ha":824,"x_min":75,"x_max":749,"o":"m 749 718 l 749 0 l 561 0 l 561 100 l 557 100 q 462 11 521 42 q 338 -19 403 -19 q 132 56 189 -19 q 75 276 75 131 l 75 718 l 272 718 l 272 313 q 301 179 272 222 q 399 136 331 136 q 515 185 479 136 q 551 342 551 233 l 551 718 l 749 718 m 461 829 l 461 992 l 649 992 l 649 829 l 461 829 m 175 829 l 175 992 l 363 992 l 363 829 l 175 829 z "},"ý":{"ha":721,"x_min":-8,"x_max":729,"o":"m 729 718 l 429 -90 q 340 -215 397 -178 q 182 -253 283 -253 q 61 -246 128 -253 l 61 -83 q 176 -90 163 -90 q 244 -43 225 -85 q 244 44 263 -1 l -8 718 l 203 718 l 365 226 l 368 226 l 525 718 l 729 718 m 607 1004 l 393 807 l 256 807 l 389 1004 l 607 1004 z "},"þ":{"ha":849,"x_min":75,"x_max":806,"o":"m 75 -253 l 75 992 l 272 992 l 272 626 l 275 626 q 479 738 343 738 q 722 627 639 738 q 806 351 806 517 q 723 89 806 197 q 490 -19 640 -19 q 367 8 425 -19 q 275 89 310 36 l 272 89 l 272 -253 l 75 -253 m 608 357 q 566 522 608 454 q 436 589 524 589 q 306 522 346 589 q 265 357 265 456 q 307 194 265 260 q 438 129 349 129 q 568 194 528 129 q 608 357 608 258 z "},"ÿ":{"ha":721,"x_min":-8,"x_max":729,"o":"m 729 718 l 429 -90 q 340 -215 397 -178 q 182 -253 283 -253 q 61 -246 128 -253 l 61 -83 q 176 -90 163 -90 q 244 -43 225 -85 q 244 44 263 -1 l -8 718 l 203 718 l 365 226 l 368 226 l 525 718 l 729 718 m 410 829 l 410 992 l 597 992 l 597 829 l 410 829 m 124 829 l 124 992 l 311 992 l 311 829 l 124 829 z "},"ı":{"ha":358,"x_min":81,"x_max":278,"o":"m 81 0 l 81 718 l 278 718 l 278 0 l 81 0 z "},"Ł":{"ha":824,"x_min":-15,"x_max":797,"o":"m 96 0 l 96 297 l -15 219 l -15 375 l 96 453 l 96 992 l 314 992 l 314 606 l 607 811 l 607 656 l 314 450 l 314 183 l 797 183 l 797 0 l 96 0 z "},"ł":{"ha":358,"x_min":-12,"x_max":371,"o":"m 81 0 l 81 397 l -12 324 l -12 465 l 81 539 l 81 992 l 278 992 l 278 694 l 371 768 l 371 626 l 278 553 l 278 0 l 81 0 z "},"Œ":{"ha":1518,"x_min":53,"x_max":1460,"o":"m 756 0 l 756 75 l 753 75 q 645 2 710 28 q 514 -24 581 -24 q 177 126 301 -24 q 53 490 53 275 q 180 861 53 707 q 518 1015 307 1015 q 753 921 679 1015 l 756 921 l 756 992 l 1450 992 l 1450 808 l 958 808 l 958 596 l 1408 596 l 1408 426 l 958 426 l 958 183 l 1460 183 l 1460 0 l 756 0 m 747 386 l 747 622 q 687 774 747 715 q 533 832 626 832 q 411 803 464 832 q 329 724 358 774 q 285 617 300 675 q 271 493 271 558 q 335 258 271 356 q 529 160 400 160 q 688 222 629 160 q 747 386 747 285 z "},"œ":{"ha":1286,"x_min":53,"x_max":1246,"o":"m 733 436 l 1049 436 q 1006 548 1046 507 q 889 589 965 589 q 777 546 818 589 q 733 436 736 503 m 403 129 q 561 361 561 129 q 407 589 561 589 q 287 520 324 589 q 250 356 250 451 q 286 198 250 267 q 403 129 322 129 m 1246 311 l 733 311 q 777 180 733 231 q 904 129 821 129 q 1049 228 1008 129 l 1240 228 q 1116 46 1206 111 q 904 -19 1026 -19 q 644 103 721 -19 q 540 11 610 42 q 390 -19 469 -19 q 142 90 231 -19 q 53 363 53 200 q 150 631 53 524 q 406 738 247 738 q 653 624 582 738 q 757 707 689 676 q 893 738 825 738 q 1159 618 1072 738 q 1246 311 1246 499 z "},"Š":{"ha":901,"x_min":33,"x_max":868,"o":"m 33 329 l 244 329 q 306 191 244 236 q 464 146 368 146 q 549 155 510 146 q 623 193 589 164 q 657 269 657 222 q 649 310 657 292 q 624 342 642 328 q 588 367 606 357 q 539 386 571 376 q 485 402 507 396 q 424 418 464 408 q 363 433 383 428 q 253 468 297 450 q 161 518 208 486 q 90 599 114 550 q 67 715 67 649 q 123 882 67 811 q 261 984 179 953 q 438 1015 343 1015 q 633 985 547 1015 q 777 880 719 954 q 835 696 835 806 l 624 696 q 428 846 615 846 q 323 818 368 846 q 278 733 278 790 q 325 657 278 679 q 574 583 372 635 q 769 501 706 550 q 868 294 868 425 q 760 65 868 153 q 456 -24 651 -24 q 154 67 276 -24 q 33 329 32 157 m 694 1278 l 542 1081 l 361 1081 l 207 1278 l 363 1278 l 451 1165 l 542 1278 l 694 1278 z "},"š":{"ha":746,"x_min":40,"x_max":706,"o":"m 40 233 l 228 233 q 272 142 229 172 q 379 113 315 113 q 469 135 431 113 q 508 204 508 157 q 495 242 508 226 q 449 272 482 258 q 381 293 415 285 q 285 315 347 301 q 200 339 235 326 q 130 373 165 351 q 76 428 94 394 q 57 507 57 461 q 83 619 57 572 q 156 692 110 667 q 255 727 203 717 q 369 738 307 738 q 588 684 501 738 q 686 508 675 631 l 499 508 q 364 606 492 606 q 254 539 254 606 q 260 512 254 524 q 280 491 267 500 q 306 476 293 482 q 343 463 319 469 q 384 453 367 457 q 431 442 401 449 q 478 432 460 436 q 645 364 585 407 q 706 231 706 321 q 612 40 706 100 q 378 -19 518 -19 q 142 41 238 -19 q 40 233 46 101 m 617 1004 l 464 807 l 283 807 l 129 1004 l 285 1004 l 374 892 l 464 1004 l 617 1004 z "},"Ÿ":{"ha":926,"x_min":-12,"x_max":939,"o":"m 353 0 l 353 386 l -12 992 l 233 992 l 465 600 l 696 992 l 939 992 l 571 381 l 571 0 l 353 0 m 513 1103 l 513 1265 l 700 1265 l 700 1103 l 513 1103 m 226 1103 l 226 1265 l 414 1265 l 414 1103 l 226 1103 z "},"Ž":{"ha":900,"x_min":32,"x_max":868,"o":"m 32 0 l 32 172 l 564 808 l 74 808 l 74 992 l 854 992 l 854 819 l 322 183 l 868 183 l 868 0 l 32 0 m 694 1278 l 542 1081 l 361 1081 l 207 1278 l 363 1278 l 451 1165 l 542 1278 l 694 1278 z "},"ž":{"ha":721,"x_min":31,"x_max":690,"o":"m 31 0 l 31 149 l 404 569 l 58 569 l 58 718 l 664 718 l 664 569 l 290 149 l 690 149 l 690 0 l 31 0 m 604 1004 l 451 807 l 271 807 l 117 1004 l 272 1004 l 361 892 l 451 1004 l 604 1004 z "},"ƒ":{"ha":772,"x_min":-7,"x_max":710,"o":"m -7 -232 l 19 -83 q 75 -87 47 -87 q 145 -65 125 -89 q 175 11 165 -42 l 263 468 l 135 468 l 160 600 l 286 600 l 319 776 q 408 962 344 908 q 606 1015 471 1015 q 710 1006 661 1015 l 685 857 q 629 867 661 867 q 554 847 576 867 q 524 781 532 828 l 489 600 l 625 600 l 603 468 l 464 468 l 386 38 q 300 -174 358 -112 q 96 -236 242 -236 q -7 -232 51 -236 z "},"ˆ":{"ha":360,"x_min":-64,"x_max":424,"o":"m -64 807 l 90 1004 l 271 1004 l 424 807 l 261 807 l 175 919 l 86 807 l -64 807 z "},"ˇ":{"ha":360,"x_min":-64,"x_max":424,"o":"m 424 1004 l 271 807 l 90 807 l -64 1004 l 92 1004 l 181 892 l 271 1004 l 424 1004 z "},"ˉ":{"ha":360,"x_min":-79,"x_max":439,"o":"m -79 856 l -79 960 l 439 960 l 439 856 l -79 856 z "},"˘":{"ha":360,"x_min":-54,"x_max":414,"o":"m -54 1010 l 36 1010 q 84 935 43 958 q 174 911 125 911 q 326 1010 303 911 l 414 1010 q 167 807 388 807 q -54 1010 -37 807 z "},"˙":{"ha":360,"x_min":86,"x_max":274,"o":"m 86 829 l 86 992 l 274 992 l 274 829 l 86 829 z "},"˚":{"ha":360,"x_min":10,"x_max":350,"o":"m 116 981 q 104 967 116 981 q 92 911 92 953 q 116 842 92 869 q 179 814 140 814 q 243 842 218 814 q 268 911 268 869 q 243 981 268 953 q 179 1008 218 1008 q 116 981 140 1008 m 60 792 q 35 817 60 792 q 10 911 10 842 q 60 1031 10 981 q 179 1081 110 1081 q 300 1031 250 1081 q 350 911 350 981 q 300 792 350 842 q 179 742 250 742 q 60 792 110 742 z "},"˛":{"ha":360,"x_min":13,"x_max":347,"o":"m 281 -178 l 347 -208 q 161 -303 274 -303 q 122 -299 142 -303 q 75 -285 103 -296 q 30 -246 47 -274 q 13 -178 13 -218 q 171 4 13 -90 l 261 4 q 146 -172 146 -100 q 162 -206 146 -193 q 200 -219 178 -219 q 281 -178 250 -219 z "},"˜":{"ha":360,"x_min":-75,"x_max":435,"o":"m 339 992 l 435 992 q 392 889 413 919 q 279 833 353 833 q 165 857 239 833 q 68 881 100 881 q 29 866 42 881 q 10 822 17 851 l -75 822 q -20 945 -58 899 q 100 992 18 992 q 189 968 126 992 q 281 943 247 943 q 325 957 310 943 q 339 992 340 971 z "},"˝":{"ha":360,"x_min":-78,"x_max":554,"o":"m 267 1004 l 60 807 l -78 807 l 49 1004 l 267 1004 m 554 1004 l 347 807 l 210 807 l 336 1004 l 554 1004 z "},"Ω":{"ha":978,"x_min":51,"x_max":922,"o":"m 240 140 l 240 144 q 119 315 168 214 q 71 539 71 415 q 189 858 71 728 q 492 989 307 989 q 669 950 589 989 q 799 847 749 911 q 876 706 849 783 q 903 549 903 628 q 853 317 903 422 q 732 144 804 211 l 732 140 l 922 140 l 922 0 l 560 0 l 560 104 q 680 255 632 153 q 728 511 728 357 q 665 747 728 650 q 492 844 601 844 q 315 749 382 844 q 247 504 247 653 q 296 254 247 361 q 417 104 344 147 l 417 0 l 51 0 l 51 140 l 240 140 z "},"μ":{"ha":824,"x_min":75,"x_max":749,"o":"m 749 718 l 749 0 l 561 0 l 561 100 l 557 100 q 469 13 522 44 q 376 -19 415 -19 q 272 14 303 -19 l 272 -253 l 75 -253 l 75 718 l 272 718 l 272 313 q 301 179 272 222 q 399 136 331 136 q 515 185 479 136 q 551 342 551 233 l 551 718 l 749 718 z "},"π":{"ha":831,"x_min":7,"x_max":811,"o":"m 797 583 l 700 583 l 700 207 q 718 0 700 81 l 550 0 q 526 199 526 42 l 526 583 l 333 583 q 303 276 328 451 q 244 0 278 100 l 75 0 q 135 292 110 119 q 163 583 160 464 q 26 569 68 583 l 7 686 q 232 732 67 732 l 811 732 l 797 583 z "},"‐":{"ha":565,"x_min":74,"x_max":492,"o":"m 74 294 l 74 464 l 492 464 l 492 294 l 74 294 z "},"–":{"ha":694,"x_min":0,"x_max":694,"o":"m 0 294 l 0 464 l 694 464 l 694 294 l 0 294 z "},"—":{"ha":1389,"x_min":181,"x_max":1208,"o":"m 181 294 l 181 464 l 1208 464 l 1208 294 l 181 294 z "},"‘":{"ha":386,"x_min":94,"x_max":292,"o":"m 292 760 l 292 546 l 94 546 l 94 758 q 148 915 92 850 q 292 992 204 981 l 292 900 q 200 760 200 869 l 292 760 z "},"’":{"ha":386,"x_min":94,"x_max":292,"o":"m 94 778 l 94 992 l 292 992 l 292 779 q 238 622 294 688 q 94 546 182 557 l 94 638 q 186 778 186 668 l 94 778 z "},"‚":{"ha":386,"x_min":94,"x_max":292,"o":"m 94 0 l 94 214 l 292 214 l 292 1 q 238 -156 294 -90 q 94 -232 182 -221 l 94 -140 q 186 0 186 -110 l 94 0 z "},"“":{"ha":643,"x_min":75,"x_max":568,"o":"m 568 760 l 568 546 l 371 546 l 371 758 q 424 915 368 850 q 568 992 481 981 l 568 900 q 476 760 476 869 l 568 760 m 272 760 l 272 546 l 75 546 l 75 758 q 128 915 72 850 q 272 992 185 981 l 272 900 q 181 760 181 869 l 272 760 z "},"”":{"ha":643,"x_min":75,"x_max":568,"o":"m 371 778 l 371 992 l 568 992 l 568 779 q 515 622 571 688 q 371 546 458 557 l 371 638 q 463 778 463 668 l 371 778 m 75 778 l 75 992 l 272 992 l 272 779 q 219 622 275 688 q 75 546 163 557 l 75 638 q 167 778 167 668 l 75 778 z "},"„":{"ha":643,"x_min":75,"x_max":568,"o":"m 371 0 l 371 214 l 568 214 l 568 1 q 515 -156 571 -90 q 371 -232 458 -221 l 371 -140 q 463 0 463 -110 l 371 0 m 75 0 l 75 214 l 272 214 l 272 1 q 219 -156 275 -90 q 75 -232 163 -221 l 75 -140 q 167 0 167 -110 l 75 0 z "},"†":{"ha":772,"x_min":33,"x_max":739,"o":"m 292 -231 l 292 556 l 33 556 l 33 718 l 292 718 l 292 992 l 479 992 l 479 718 l 739 718 l 739 556 l 479 556 l 479 -231 l 292 -231 z "},"‡":{"ha":772,"x_min":33,"x_max":739,"o":"m 292 -231 l 292 38 l 33 38 l 33 200 l 292 200 l 292 556 l 33 556 l 33 718 l 292 718 l 292 992 l 479 992 l 479 718 l 739 718 l 739 556 l 479 556 l 479 200 l 739 200 l 739 38 l 479 38 l 479 -231 l 292 -231 z "},"•":{"ha":696,"x_min":100,"x_max":596,"o":"m 172 320 q 136 357 172 320 q 100 496 100 393 q 172 671 100 599 q 347 743 244 743 q 523 671 450 743 q 596 496 596 599 q 523 320 596 393 q 347 247 450 247 q 172 320 244 247 z "},"…":{"ha":1389,"x_min":122,"x_max":1265,"o":"m 122 0 l 122 214 l 340 214 l 340 0 l 122 0 m 585 0 l 585 214 l 803 214 l 803 0 l 585 0 m 1047 0 l 1047 214 l 1265 214 l 1265 0 l 1047 0 z "},"‰":{"ha":1593,"x_min":96,"x_max":1497,"o":"m 736 239 q 738 178 736 201 q 747 126 740 154 q 771 85 754 99 q 814 71 788 71 q 847 76 833 71 q 869 95 861 82 q 883 119 878 108 q 890 152 888 131 q 892 185 892 174 q 892 219 892 196 q 890 274 892 254 q 882 319 889 294 q 859 356 875 344 q 817 368 843 368 q 772 356 789 368 q 747 322 754 344 q 738 283 740 300 q 736 239 736 265 m 665 45 q 638 77 665 45 q 611 215 611 110 q 662 390 611 321 q 815 458 713 458 q 1017 217 1017 458 q 967 45 1017 110 q 814 -19 917 -19 q 665 45 718 -19 m 1145 45 q 1118 77 1145 45 q 1092 215 1092 110 q 1142 390 1092 321 q 1296 458 1193 458 q 1497 217 1497 458 q 1447 45 1497 110 q 1294 -19 1397 -19 q 1145 45 1199 -19 m 1217 239 q 1219 178 1217 201 q 1228 126 1221 154 q 1251 85 1235 99 q 1294 71 1268 71 q 1328 76 1314 71 q 1350 95 1342 82 q 1363 119 1358 108 q 1370 152 1368 131 q 1372 185 1372 174 q 1372 219 1372 196 q 1371 274 1372 254 q 1363 319 1369 294 q 1340 356 1356 344 q 1297 368 1324 368 q 1252 356 1269 368 q 1228 322 1235 344 q 1219 283 1221 300 q 1217 239 1217 265 m 149 578 q 123 611 149 578 q 96 749 96 643 q 147 923 96 854 q 300 992 197 992 q 501 750 501 992 q 451 578 501 643 q 299 514 401 514 q 149 578 203 514 m 221 772 q 223 711 221 735 q 232 660 225 688 q 256 618 239 632 q 299 604 272 604 q 332 610 318 604 q 354 628 346 615 q 367 653 363 642 q 374 685 372 664 q 376 718 376 707 q 376 753 376 729 q 375 808 376 788 q 367 853 374 828 q 344 890 360 878 q 301 901 328 901 q 256 890 274 901 q 232 856 239 878 q 223 816 225 833 q 221 772 221 799 m 208 -31 l 783 1003 l 901 1003 l 329 -31 l 208 -31 z "},"‹":{"ha":335,"x_min":58,"x_max":276,"o":"m 276 111 l 58 285 l 58 472 l 276 643 l 276 476 l 151 378 l 276 278 l 276 111 z "},"›":{"ha":335,"x_min":58,"x_max":276,"o":"m 58 643 l 276 472 l 276 285 l 58 111 l 58 278 l 183 378 l 58 476 l 58 643 z "},"⁄":{"ha":232,"x_min":-231,"x_max":463,"o":"m -231 -31 l 344 1003 l 463 1003 l -110 -31 l -231 -31 z "},"€":{"ha":772,"x_min":21,"x_max":800,"o":"m 800 933 l 715 760 q 533 822 617 822 q 339 632 388 822 l 678 632 l 635 532 l 324 532 l 322 474 l 618 474 l 575 374 l 333 374 q 539 154 378 154 q 753 242 642 154 l 751 32 q 538 -24 657 -24 q 256 90 361 -24 q 129 374 158 193 l 22 374 l 65 474 l 121 474 q 122 532 121 522 l 21 532 l 64 632 l 135 632 q 272 897 168 800 q 547 1003 382 1003 q 800 933 665 1003 z "},"ℓ":{"ha":708,"x_min":32,"x_max":683,"o":"m 613 251 l 683 179 q 397 -14 585 -14 q 219 50 279 -14 q 149 217 158 114 q 147 232 149 226 l 76 175 l 32 268 q 146 364 139 357 l 146 717 q 215 981 146 893 q 393 1069 285 1069 q 537 1001 489 1069 q 585 824 585 932 q 313 339 585 604 l 314 279 q 350 164 315 204 q 438 124 385 124 q 613 251 536 124 m 313 719 l 313 499 q 476 829 476 686 q 400 946 476 946 q 338 893 364 946 q 313 719 313 840 z "},"™":{"ha":1389,"x_min":86,"x_max":1289,"o":"m 1289 992 l 1289 419 l 1156 419 l 1156 825 l 1153 825 l 1006 419 l 910 419 l 763 825 l 760 825 l 760 419 l 626 419 l 626 992 l 815 992 l 958 615 l 1101 992 l 1289 992 m 553 992 l 553 881 l 390 881 l 390 419 l 249 419 l 249 881 l 86 881 l 86 992 l 553 992 z "},"Ω":{"ha":978,"x_min":51,"x_max":922,"o":"m 240 140 l 240 144 q 119 315 168 214 q 71 539 71 415 q 189 858 71 728 q 492 989 307 989 q 669 950 589 989 q 799 847 749 911 q 876 706 849 783 q 903 549 903 628 q 853 317 903 422 q 732 144 804 211 l 732 140 l 922 140 l 922 0 l 560 0 l 560 104 q 680 255 632 153 q 728 511 728 357 q 665 747 728 650 q 492 844 601 844 q 315 749 382 844 q 247 504 247 653 q 296 254 247 361 q 417 104 344 147 l 417 0 l 51 0 l 51 140 l 240 140 z "},"℮":{"ha":1219,"x_min":47,"x_max":1171,"o":"m 1171 472 l 261 472 q 254 467 254 472 l 254 190 q 265 160 254 174 q 610 10 411 10 q 972 178 826 10 l 1053 178 q 859 35 976 88 q 608 -18 742 -18 q 212 129 376 -18 q 47 486 47 276 q 212 844 47 696 q 608 992 376 992 q 1006 844 842 992 q 1171 486 1171 696 l 1171 472 m 964 508 l 964 785 q 950 818 964 804 q 610 961 804 961 q 267 813 413 961 q 254 779 254 800 l 254 508 q 261 499 254 499 l 958 499 q 964 508 964 499 z "},"∂":{"ha":794,"x_min":53,"x_max":726,"o":"m 143 888 l 94 1018 q 347 1097 201 1097 q 617 958 508 1097 q 726 567 726 819 q 624 145 726 303 q 339 -12 521 -12 q 213 17 269 -12 q 123 96 157 47 q 71 201 89 144 q 53 317 53 258 q 139 581 53 481 q 351 682 225 682 q 480 646 426 682 q 556 571 533 610 l 557 571 q 558 618 558 582 q 493 855 558 756 q 325 954 428 954 q 143 888 222 954 m 356 132 l 357 132 q 479 221 429 132 q 540 425 529 310 q 487 505 529 467 q 386 543 444 543 q 269 474 315 543 q 224 311 224 406 q 260 183 224 235 q 356 132 296 132 z "},"∆":{"ha":908,"x_min":38,"x_max":869,"o":"m 38 0 l 38 101 l 356 996 l 561 996 l 869 104 l 869 0 l 38 0 m 215 140 l 683 140 l 532 554 q 492 677 524 583 q 453 806 461 771 l 449 806 q 415 694 443 779 q 376 575 386 608 l 215 140 z "},"∏":{"ha":997,"x_min":35,"x_max":961,"o":"m 961 817 l 821 817 l 821 -135 l 650 -135 l 650 817 l 346 817 l 346 -135 l 175 -135 l 175 817 l 35 817 l 35 974 l 961 974 l 961 817 z "},"∑":{"ha":772,"x_min":32,"x_max":744,"o":"m 744 -135 l 32 -135 l 32 -24 l 368 421 l 44 853 l 44 974 l 722 974 l 722 828 l 276 828 l 276 822 l 563 449 l 244 31 l 244 26 l 744 26 l 744 -135 z "},"−":{"ha":833,"x_min":67,"x_max":768,"o":"m 67 276 l 67 425 l 768 425 l 768 276 l 67 276 z "},"∕":{"ha":232,"x_min":-231,"x_max":463,"o":"m -231 -31 l 344 1003 l 463 1003 l -110 -31 l -231 -31 z "},"∙":{"ha":386,"x_min":76,"x_max":311,"o":"m 76 399 q 111 482 76 447 q 194 517 146 517 q 276 481 242 517 q 311 399 311 446 q 276 318 311 354 q 196 282 242 282 q 112 317 147 282 q 76 399 76 351 z "},"√":{"ha":819,"x_min":44,"x_max":831,"o":"m 831 1168 l 519 -196 l 382 -196 l 175 417 l 72 376 l 44 474 l 278 568 l 422 122 q 438 58 428 99 q 450 1 447 17 l 453 0 q 474 131 464 78 l 711 1168 l 831 1168 z "},"∞":{"ha":1081,"x_min":67,"x_max":1013,"o":"m 1013 403 l 1013 401 q 947 228 1013 293 q 790 163 881 163 q 667 198 726 163 q 542 319 608 233 q 420 203 478 243 q 285 163 363 163 q 131 228 196 163 q 67 394 67 294 q 132 565 67 499 q 296 632 197 632 q 546 478 426 632 q 651 582 617 557 q 799 632 719 633 q 951 569 890 632 q 1013 403 1013 506 m 297 257 l 299 257 q 372 280 335 257 q 431 325 410 303 q 489 390 453 347 q 445 449 458 432 q 405 492 432 465 q 351 530 378 519 q 292 540 324 540 q 199 499 233 540 q 164 394 164 457 q 202 297 164 338 q 297 257 240 257 m 789 540 l 788 540 q 741 533 764 540 q 694 503 718 525 q 659 473 669 482 q 622 432 649 464 l 594 400 q 702 288 661 318 q 793 257 743 257 q 882 300 849 257 q 915 394 915 343 q 880 499 915 458 q 789 540 844 540 z "},"∫":{"ha":547,"x_min":28,"x_max":517,"o":"m 517 1188 l 497 1069 q 449 1081 472 1081 q 379 1046 404 1081 q 342 810 342 996 q 351 483 342 700 q 361 139 361 267 q 311 -140 361 -51 q 135 -240 260 -240 q 28 -218 69 -240 l 50 -94 q 110 -108 81 -108 q 171 -81 150 -108 q 208 138 208 -28 q 198 488 208 265 q 188 826 188 710 q 207 1021 188 949 q 271 1140 226 1093 q 432 1204 326 1204 q 517 1188 483 1204 z "},"≈":{"ha":763,"x_min":53,"x_max":707,"o":"m 646 628 l 707 572 q 519 429 633 429 q 364 485 453 429 q 244 531 290 531 q 190 514 215 531 q 151 480 165 497 q 115 431 138 463 l 53 488 q 138 590 85 550 q 253 629 192 629 q 285 626 269 629 q 313 620 301 624 q 340 610 325 617 q 361 600 354 604 q 382 588 368 596 q 400 578 396 579 q 423 564 407 574 q 444 551 439 554 q 463 542 450 549 q 482 534 475 536 q 499 530 489 532 q 521 528 510 528 q 585 553 557 528 q 646 628 614 578 m 646 369 l 707 314 q 519 171 632 171 q 364 226 458 171 q 244 274 289 274 q 190 257 215 274 q 151 223 164 240 q 115 172 138 206 l 53 229 q 138 331 85 292 q 253 371 192 371 q 286 368 269 371 q 313 363 303 365 q 340 352 324 360 q 360 342 356 344 q 383 331 365 340 l 400 321 q 424 306 407 317 q 449 292 440 296 q 471 281 457 288 q 497 272 485 275 q 521 269 508 269 q 585 294 558 269 q 646 369 613 318 z "},"≠":{"ha":763,"x_min":67,"x_max":694,"o":"m 560 714 l 506 590 l 694 590 l 694 490 l 468 490 l 385 301 l 694 301 l 694 201 l 347 201 l 278 43 l 199 75 l 254 201 l 67 201 l 67 301 l 293 301 l 375 490 l 67 490 l 67 590 l 413 590 l 481 746 l 560 714 z "},"≤":{"ha":763,"x_min":68,"x_max":697,"o":"m 692 139 l 74 449 l 74 557 l 692 867 l 692 750 l 174 506 l 174 501 l 692 256 l 692 139 m 697 -17 l 68 -17 l 68 86 l 697 86 l 697 -17 z "},"≥":{"ha":763,"x_min":69,"x_max":694,"o":"m 76 867 l 694 557 l 694 449 l 76 139 l 76 256 l 593 501 l 593 504 l 76 750 l 76 867 m 694 -17 l 69 -17 l 69 86 l 694 86 l 694 -17 z "},"◊":{"ha":819,"x_min":69,"x_max":750,"o":"m 750 486 l 475 -68 l 336 -68 l 69 486 l 344 1042 l 482 1042 l 750 486 m 597 482 l 439 817 q 413 900 419 868 l 408 900 q 382 817 393 843 l 222 490 l 382 150 q 406 71 399 101 l 411 71 q 436 149 426 126 l 597 482 z "},"ﬁ":{"ha":849,"x_min":0,"x_max":768,"o":"m 768 992 l 768 829 l 571 829 l 571 992 l 768 992 m 571 0 l 571 718 l 768 718 l 768 0 l 571 0 m 118 0 l 118 586 l 0 586 l 0 718 l 118 718 l 118 774 q 180 932 118 872 q 358 992 242 992 q 415 989 378 992 q 463 986 453 986 l 463 839 q 390 843 426 843 q 333 824 350 843 q 315 761 315 806 l 315 718 l 451 718 l 451 586 l 315 586 l 315 0 l 118 0 z "},"ﬂ":{"ha":849,"x_min":0,"x_max":768,"o":"m 571 0 l 571 992 l 768 992 l 768 0 l 571 0 m 118 0 l 118 586 l 0 586 l 0 718 l 118 718 l 118 774 q 180 932 118 872 q 358 992 242 992 q 415 989 378 992 q 463 986 453 986 l 463 839 q 390 843 426 843 q 333 824 350 843 q 315 761 315 806 l 315 718 l 451 718 l 451 586 l 315 586 l 315 0 l 118 0 z "}}}
